<svg width="229" height="118" viewBox="0 0 229 118" fill="none" xmlns="http://www.w3.org/2000/svg">
<mask id="mask0_569_6688" style="mask-type:luminance" maskUnits="userSpaceOnUse" x="0" y="0" width="229" height="118">
<path d="M229 0H0V118H229V0Z" fill="white"/>
</mask>
<g mask="url(#mask0_569_6688)">
<path d="M9.96519 27.9578L10.0648 37.9072L9.86554 43.3794C9.76589 44.5734 9.36728 45.5683 8.57007 46.4637C7.77285 47.2597 6.87598 47.8567 5.77981 48.2546C3.98608 48.8516 2.4913 49.1501 1.49478 49.1501C0.498259 49.1501 0 48.6526 0 47.7572L0.099658 46.9612C0.597917 45.5683 1.19582 43.2799 1.89339 40.0961L2.19235 38.5042C3.38817 31.9376 3.98607 24.0776 3.98607 15.1231C3.98607 11.7403 3.58747 9.25295 2.88991 7.76054C2.39165 7.26307 2.0927 6.56661 2.0927 5.96964C2.0927 4.17875 3.58747 2.68634 6.67668 1.5919C9.76589 0.497469 12.3568 0 14.4495 0C16.5422 0 17.8377 0.895449 18.3359 2.58685C18.8342 4.47724 19.3325 6.46712 19.6314 8.55649C20.329 12.9342 21.0266 15.1231 21.5248 15.1231C21.9234 15.1231 22.322 14.8246 22.5213 14.3271C24.0161 10.6459 24.913 8.05902 25.4112 6.7656C25.8098 5.47217 26.1088 4.57673 26.2084 4.27824C26.3081 3.97976 26.7067 3.3828 27.5039 2.68634C28.2015 1.98988 29.0984 1.49241 30.1945 1.09443C31.7889 0.497469 33.6823 0.198989 35.6754 0.198989C39.0635 0.198989 40.7576 0.895445 40.7576 2.38786C40.7576 2.88533 40.5583 3.48229 40.1597 4.17875C39.1632 5.77066 38.366 8.75548 37.9674 13.2327C37.5688 17.7099 37.3695 22.0877 37.3695 26.4654C37.3695 35.2209 37.9674 39.9966 39.1632 40.7926C39.9604 41.3895 40.359 42.1855 40.359 42.9814C40.359 43.8769 39.7611 44.6728 38.5653 45.4688C37.3695 46.2648 36.074 46.9612 34.7785 47.3592C33.3834 47.7572 32.1876 47.9562 31.191 47.9562C30.1945 47.9562 29.3973 47.7572 28.899 47.3592C28.4008 46.9612 28.0022 46.5632 28.0022 46.0658L27.9025 45.4688C27.7032 44.7723 27.6036 43.4789 27.6036 41.489C27.6036 38.4047 27.8029 34.3255 28.2015 29.3508L28.4008 27.0624C28.7994 23.6796 28.9987 21.0927 28.9987 19.2024C28.9987 17.312 28.7994 16.317 28.5004 16.317C27.7032 16.317 26.1088 20.1973 23.9165 28.0573C23.0196 31.2411 22.2224 33.5295 21.6245 34.9224L21.2259 35.8179C20.6279 37.3103 19.6314 38.1062 18.1366 38.1062C17.6384 38.1062 17.3394 38.0067 17.0405 37.7083C16.7415 37.4098 16.5422 37.1113 16.4426 36.6138C15.6453 34.7234 14.4495 29.6492 12.6558 21.4907L11.7589 17.511C11.5596 16.8145 11.2607 16.516 10.9617 16.516C10.3638 16.6155 9.96519 20.3963 9.96519 27.9578Z" fill="white"/>
</g>
<mask id="mask1_569_6688" style="mask-type:luminance" maskUnits="userSpaceOnUse" x="0" y="0" width="229" height="118">
<path d="M229 0H0V118H229V0Z" fill="white"/>
</mask>
<g mask="url(#mask1_569_6688)">
<path d="M64.3751 26.565L64.1758 35.2209C64.1758 38.7032 64.5744 40.6931 65.4713 41.1906C65.9695 41.5886 66.2685 42.1855 66.2685 42.7825C66.2685 43.9764 65.4713 45.0709 63.8769 46.1653C62.2824 47.1602 60.5883 47.7572 58.9939 47.7572C58.1967 47.7572 57.4991 47.5582 57.1005 47.2597C56.7019 46.8618 56.5026 46.5633 56.5026 46.0658C56.5026 44.9714 56.403 44.3744 56.104 44.3744C56.104 44.3744 55.8051 44.5734 55.3068 45.0709C54.8085 45.5683 54.111 46.0658 53.2141 46.4638C52.3172 46.8618 51.1214 47.1602 49.6266 47.1602C48.2315 47.1602 46.936 46.7623 45.8399 46.0658C44.7437 45.3693 43.9465 44.4739 43.5479 43.28C42.7507 41.3896 42.4517 39.5987 42.4517 38.0068C42.4517 36.4149 42.7507 34.823 43.2489 33.4301C43.7472 32.0371 44.3451 30.8432 45.1423 29.9478C45.9395 29.0523 46.7367 28.2564 47.7333 27.5599C48.7298 26.8634 49.7263 26.366 50.5235 26.0675C51.4204 25.769 52.3172 25.4705 53.2141 25.2715C54.5096 24.9731 55.4064 24.8736 55.9047 24.8736L56.5026 24.0776C56.5026 22.6847 55.4064 21.9882 53.4134 21.9882C51.4204 21.9882 49.7263 22.3862 48.4308 23.1822C47.9326 23.4806 47.4343 23.6796 46.936 23.6796C45.9395 23.6796 45.4413 22.8837 45.4413 21.3913C45.4413 17.511 48.5305 15.5211 54.7089 15.5211C59.4922 15.5211 62.4817 17.113 63.6776 20.2968C64.0762 22.0877 64.3751 23.9781 64.3751 26.565ZM50.9221 36.5144C50.9221 38.3053 51.52 39.1012 52.8155 39.1012C54.111 39.1012 55.1075 38.5043 55.9047 37.1113C56.7019 35.8179 57.1005 34.624 57.1005 33.629C57.1005 31.7387 56.403 30.8432 55.1075 30.8432C53.9117 30.8432 52.9151 31.4402 52.1179 32.6341C51.3207 33.9275 50.9221 35.2209 50.9221 36.5144Z" fill="white"/>
</g>
<mask id="mask2_569_6688" style="mask-type:luminance" maskUnits="userSpaceOnUse" x="0" y="0" width="229" height="118">
<path d="M229 0H0V118H229V0Z" fill="white"/>
</mask>
<g mask="url(#mask2_569_6688)">
<path d="M78.725 41.7875L78.8246 43.3794C78.8246 44.7723 78.3264 45.7672 77.4295 46.4637C75.8351 47.5581 73.7424 48.1551 71.2511 48.1551C69.6567 48.1551 68.8594 47.4586 68.8594 46.0657L69.0587 44.9713C70.0553 40.0961 70.5535 34.0269 70.5535 26.8633C70.5535 24.6745 69.856 23.1821 68.5605 22.1871C68.0622 21.8886 67.8629 21.3912 67.8629 20.7942C67.8629 19.5008 68.8594 18.2074 70.9521 17.0134C73.0448 15.8195 74.6392 15.123 75.9347 15.123C77.2302 15.123 77.9278 15.8195 78.0274 17.2124C78.2267 18.2074 78.3264 18.9038 78.3264 19.4013C78.3264 19.8988 78.5257 20.0978 78.8246 20.0978C79.0239 20.0978 79.2232 19.9983 79.3229 19.7993C79.4225 19.6003 79.5222 19.4013 79.6219 19.2023C79.7215 19.0033 79.9208 18.7048 80.3194 18.2074C80.718 17.7099 81.1166 17.3119 81.5152 17.0134C82.6114 16.0185 83.8072 15.6205 85.2024 15.6205C86.0992 15.6205 86.9961 15.919 87.7933 16.4165C89.3877 17.4114 90.2846 19.4013 90.2846 22.3861C90.2846 24.2765 89.886 25.8684 89.1884 27.2613C88.3912 28.6542 87.1954 29.3507 85.5013 29.3507C83.4086 29.3507 82.4121 28.1568 82.4121 25.8684L82.5118 24.973C82.5118 24.2765 82.2128 23.8785 81.6149 23.8785C79.4226 23.8785 78.3264 27.0623 78.3264 33.43C78.2267 35.1214 78.426 37.9072 78.725 41.7875Z" fill="white"/>
</g>
<mask id="mask3_569_6688" style="mask-type:luminance" maskUnits="userSpaceOnUse" x="0" y="0" width="229" height="118">
<path d="M229 0H0V118H229V0Z" fill="white"/>
</mask>
<g mask="url(#mask3_569_6688)">
<path d="M116.094 16.1181C115.297 22.8837 114.998 29.7487 114.998 36.7133C114.998 43.6779 114.6 48.7521 113.902 51.7369C113.205 54.8213 111.71 57.3086 109.617 59.2985C107.524 61.2884 105.033 62.2833 102.044 62.2833C100.349 62.2833 98.8547 61.7858 97.5592 60.8904C96.2637 59.9949 95.6658 58.602 95.6658 57.0101C95.6658 56.0152 95.9648 55.1197 96.5627 54.5228C97.1606 53.9258 97.6588 53.5278 98.2568 53.4283L99.1536 53.3288C100.648 53.2294 101.944 52.8314 102.94 52.1349C103.937 51.4385 104.734 50.543 105.133 49.5481C105.83 47.8567 106.129 46.2648 106.129 44.7724V44.0759C106.129 43.7774 105.93 43.6779 105.731 43.6779L105.133 43.9764C104.634 44.7724 103.937 45.3693 103.14 45.8668C102.342 46.2648 101.645 46.5632 101.047 46.6627L100.25 46.7622C98.4561 46.7622 96.9613 46.2648 95.6658 45.3693C94.3703 44.4739 93.5731 43.1804 93.0749 41.688C92.178 39.1012 91.7794 36.6138 91.7794 34.3255C91.7794 32.0371 91.9787 29.9477 92.3773 27.9579C92.7759 25.968 93.4735 24.0776 94.3703 22.1872C95.2672 20.2968 96.5627 18.8044 98.2568 17.6105C99.9508 16.4165 101.645 15.8196 103.538 15.8196C105.332 15.8196 106.827 16.2175 107.724 17.113C107.823 17.4115 108.023 17.511 108.322 17.511C108.621 17.511 108.82 17.4115 108.919 17.113C110.514 15.1231 112.308 14.1282 114.4 14.1282C115.397 14.1282 116.094 14.8246 116.094 16.1181ZM103.738 36.0169C104.734 36.0169 105.631 35.5194 106.229 34.425C106.827 33.3305 107.225 31.8381 107.126 30.0472C107.126 28.2563 106.727 26.6644 106.03 25.2715C105.332 23.9781 104.435 23.2816 103.439 23.2816C102.442 23.2816 101.645 23.8786 100.947 24.973C100.25 26.0675 99.9508 27.5599 99.9508 29.2513C99.9508 30.9427 100.349 32.6341 101.047 34.027C101.844 35.3204 102.741 36.0169 103.738 36.0169Z" fill="white"/>
</g>
<mask id="mask4_569_6688" style="mask-type:luminance" maskUnits="userSpaceOnUse" x="0" y="0" width="229" height="118">
<path d="M229 0H0V118H229V0Z" fill="white"/>
</mask>
<g mask="url(#mask4_569_6688)">
<path d="M131.142 15.4216C134.729 15.4216 137.52 17.0135 139.413 20.1974C141.306 23.3812 142.303 27.2614 142.303 31.8382C142.303 37.9073 140.609 42.484 137.121 45.5683C135.228 47.2597 133.035 48.1552 130.743 48.1552C128.352 48.1552 126.458 47.6577 124.963 46.7623C123.469 45.7673 122.273 44.5734 121.476 42.9815C119.881 39.8972 118.984 36.6139 118.984 33.1316C118.984 29.0523 119.881 25.1721 121.775 21.5903C122.671 19.7994 123.967 18.307 125.561 17.2125C127.255 15.9191 129.149 15.4216 131.142 15.4216ZM134.032 25.371C133.534 24.3761 132.736 23.8786 131.54 23.8786C130.345 23.8786 129.248 24.6746 128.252 26.2665C127.156 27.8584 126.658 29.8483 126.658 32.1366C126.658 35.3205 127.754 36.9124 129.846 36.9124C131.042 36.9124 132.138 36.2159 133.235 34.7235C134.331 33.2311 134.829 31.2412 134.829 28.7538C134.829 27.4604 134.53 26.366 134.032 25.371Z" fill="white"/>
</g>
<mask id="mask5_569_6688" style="mask-type:luminance" maskUnits="userSpaceOnUse" x="0" y="0" width="229" height="118">
<path d="M229 0H0V118H229V0Z" fill="white"/>
</mask>
<g mask="url(#mask5_569_6688)">
<path d="M163.828 15.2227C169.309 15.2227 172.099 16.8146 172.099 20.0979C172.099 20.9933 171.8 21.7893 171.202 22.3862C170.604 22.9832 169.906 23.2817 169.109 23.2817C168.312 23.2817 167.614 23.0827 166.917 22.6847C166.219 22.2867 165.422 22.0877 164.525 22.0877C162.433 22.0877 161.336 22.6847 161.336 23.8786C161.336 24.3761 161.635 24.8736 162.333 25.2716C167.216 27.7589 170.205 29.7488 171.202 31.2412C172.398 33.0321 172.996 35.221 172.996 37.7083C172.996 38.6038 172.796 39.6982 172.398 40.9916C171.999 42.285 171.401 43.3795 170.704 44.2749C170.006 45.1704 168.91 45.9663 167.316 46.7623C165.721 47.5582 163.927 47.8567 161.835 47.8567C160.34 47.8567 158.745 47.5582 157.051 47.0608C153.564 46.0658 151.869 43.9764 151.869 40.8921C151.869 39.3997 152.268 38.2058 153.165 37.1114C153.962 36.0169 155.058 35.5195 156.254 35.5195C157.55 35.5195 158.446 35.9174 158.945 36.6139C158.945 36.6139 159.144 36.8129 159.343 37.2108C159.543 37.5093 159.742 37.8078 159.941 38.0068C160.44 38.5043 161.237 38.8028 162.034 38.8028C162.931 38.8028 163.628 38.6038 164.127 38.1063C164.625 37.7083 164.924 37.1114 164.924 36.3154C164.924 35.5194 164.326 34.823 163.13 34.027C161.934 33.2311 160.639 32.5346 159.244 31.9377C157.849 31.3407 156.553 30.4453 155.357 29.1518C154.161 27.8584 153.564 26.366 153.564 24.6746C153.564 21.7893 154.56 19.4014 156.453 17.71C158.247 16.1181 160.738 15.2227 163.828 15.2227Z" fill="white"/>
</g>
<mask id="mask6_569_6688" style="mask-type:luminance" maskUnits="userSpaceOnUse" x="0" y="0" width="229" height="118">
<path d="M229 0H0V118H229V0Z" fill="white"/>
</mask>
<g mask="url(#mask6_569_6688)">
<path d="M62.98 100.688C61.3856 102.479 57.6984 103.275 51.9186 103.275C49.228 103.275 47.235 103.175 45.8399 102.877C44.4447 102.578 43.6475 102.28 43.3486 101.882C43.0496 101.484 42.95 100.986 42.95 100.39L43.0496 99.4941C44.0461 94.3204 44.4447 87.2563 44.4447 78.4013L44.1458 67.7554C44.0461 66.263 43.5479 64.8701 42.7507 63.6762C42.2524 63.1787 41.9534 62.5818 41.9534 61.9848C41.9534 60.5919 43.2489 59.2984 45.7402 57.9055C48.2315 56.6121 50.2245 55.9156 51.6197 55.9156C53.0148 55.9156 53.7124 56.5126 53.7124 57.7065C53.2141 61.8853 52.8155 65.6661 52.7159 69.1484C52.6162 72.6307 52.5165 76.5109 52.5165 80.8887C52.5165 85.2664 52.5165 87.9527 52.6162 88.8482C52.6162 89.7436 52.7159 90.2411 52.7159 90.3406C52.7159 90.4401 52.8155 90.5396 52.9152 90.7386C53.0148 90.9376 53.2141 91.1366 53.4134 91.3355C53.9117 91.7335 54.7089 91.9325 55.7054 91.9325C57.9974 91.9325 59.8908 91.1366 61.1863 89.5446C61.8838 88.8482 62.4817 88.5497 63.1793 88.5497C64.4748 88.5497 65.1723 89.7436 65.1723 92.231C65.272 96.0118 64.5744 98.8971 62.98 100.688Z" fill="white"/>
</g>
<mask id="mask7_569_6688" style="mask-type:luminance" maskUnits="userSpaceOnUse" x="0" y="0" width="229" height="118">
<path d="M229 0H0V118H229V0Z" fill="white"/>
</mask>
<g mask="url(#mask7_569_6688)">
<path d="M89.2881 82.1822L89.0888 90.8381C89.0888 94.3204 89.4874 96.3103 90.3842 96.8078C90.8825 97.2058 91.1815 97.8027 91.1815 98.3997C91.1815 99.5936 90.3843 100.688 88.7898 101.782C87.1954 102.777 85.5013 103.374 83.9069 103.374C83.1097 103.374 82.4121 103.175 82.0135 102.877C81.6149 102.479 81.4156 102.18 81.4156 101.683C81.4156 100.589 81.3159 99.9916 81.017 99.9916C81.017 99.9916 80.718 100.191 80.2198 100.688C79.7215 101.186 79.0239 101.683 78.1271 102.081C77.2302 102.479 76.0344 102.777 74.5396 102.777C73.1445 102.777 71.849 102.379 70.7528 101.683C69.6567 100.987 68.8594 100.091 68.4608 98.8972C67.6636 97.0068 67.3647 95.2159 67.3647 93.624C67.3647 92.0321 67.6636 90.4402 68.1619 89.0472C68.6601 87.6543 69.2581 86.4604 70.0553 85.5649C70.8525 84.6695 71.6497 83.8736 72.6462 83.1771C73.6427 82.4806 74.6392 81.9832 75.4365 81.6847C76.3333 81.3862 77.2302 81.0877 78.1271 80.8887C79.4225 80.5902 80.3194 80.4908 80.8177 80.4908L81.4156 79.6948C81.4156 78.3019 80.3194 77.6054 78.3264 77.6054C76.3333 77.6054 74.6393 78.0034 73.3438 78.7993C72.8455 79.0978 72.3473 79.2968 71.849 79.2968C70.8525 79.2968 70.3542 78.5009 70.3542 77.0085C70.3542 73.1282 73.4434 71.1383 79.6219 71.1383C84.4051 71.1383 87.3947 72.7302 88.5905 75.914C89.0888 77.7049 89.2881 79.6948 89.2881 82.1822ZM75.8351 92.1316C75.8351 93.9225 76.433 94.7184 77.7285 94.7184C79.0239 94.7184 80.0205 94.1214 80.8177 92.7285C81.6149 91.4351 82.0135 90.2412 82.0135 89.2462C82.0135 87.3558 81.3159 86.4604 80.0205 86.4604C78.8246 86.4604 77.8281 87.0574 77.0309 88.2513C76.2337 89.5447 75.8351 90.8381 75.8351 92.1316Z" fill="white"/>
</g>
<mask id="mask8_569_6688" style="mask-type:luminance" maskUnits="userSpaceOnUse" x="0" y="0" width="229" height="118">
<path d="M229 0H0V118H229V0Z" fill="white"/>
</mask>
<g mask="url(#mask8_569_6688)">
<path d="M94.5696 93.425L94.7689 83.2766C94.7689 82.0827 94.6693 80.9882 94.47 80.0928C94.2707 79.1973 93.9717 78.5009 93.4735 78.0034C93.0748 77.5059 92.7759 76.909 92.7759 76.312C92.7759 75.0186 93.7724 73.8247 95.8651 72.7302C97.9578 71.6358 99.5522 71.0388 100.648 71.0388C101.745 71.0388 102.542 71.2378 102.94 71.7353C103.339 72.2327 103.538 73.0287 103.538 74.2226C103.538 75.4166 103.439 77.3069 103.239 79.9933C103.04 82.5801 102.94 84.172 102.94 84.769C102.94 89.3457 103.937 91.6341 105.93 91.6341C107.325 91.6341 108.322 90.1417 108.82 87.1569C109.019 86.0624 109.119 84.8685 109.119 83.5751C109.119 80.8887 108.919 78.8988 108.421 77.6054C107.923 77.0085 107.724 76.4115 107.724 75.914C107.724 74.6206 108.621 73.6257 110.514 72.7302C112.407 71.8348 114.101 71.4368 115.497 71.4368C116.892 71.4368 117.689 72.1332 117.689 73.6257C117.689 75.0186 117.589 77.3069 117.29 80.3913C116.991 83.4756 116.892 85.8634 116.892 87.6543C116.892 89.4452 116.892 90.6392 116.991 91.4351C116.991 92.1316 117.29 93.226 117.689 94.7184C118.087 96.1113 118.586 97.1063 119.283 97.5042C119.981 97.8027 120.379 98.3002 120.379 98.8972C120.379 99.4941 120.18 99.9916 119.881 100.39C118.287 102.479 115.895 103.573 112.507 103.573C110.614 103.474 109.517 102.777 109.318 101.484L108.919 99.3946C108.919 99.0962 108.72 98.9966 108.521 98.9966L108.023 99.2951C106.528 102.18 104.236 103.573 101.147 103.573C96.762 103.076 94.5696 99.7926 94.5696 93.425Z" fill="white"/>
</g>
<mask id="mask9_569_6688" style="mask-type:luminance" maskUnits="userSpaceOnUse" x="0" y="0" width="229" height="118">
<path d="M229 0H0V118H229V0Z" fill="white"/>
</mask>
<g mask="url(#mask9_569_6688)">
<path d="M132.836 86.3608L132.736 91.037C132.736 92.3304 132.836 94.0218 132.936 96.1112L133.135 99.295C133.135 100.688 132.637 101.683 131.74 102.379C130.145 103.474 128.252 103.971 125.761 103.971C124.067 103.971 123.17 103.275 123.17 101.782L123.269 100.787C124.266 95.9122 124.864 91.7335 124.864 88.3507C124.864 84.9679 124.764 82.6795 124.565 81.5851C124.366 80.4906 123.867 79.4957 123.17 78.6998C122.472 77.9038 122.074 77.3068 122.074 76.8094C122.074 75.4164 123.17 74.123 125.362 72.8296C127.554 71.5362 129.248 70.9392 130.544 70.9392C131.839 70.9392 132.537 71.6357 132.736 73.0286C132.836 74.8195 133.035 75.8144 133.434 75.8144C133.534 75.8144 133.733 75.7149 133.832 75.6154C134.032 75.3169 134.231 75.0185 134.63 74.521C135.028 74.123 135.726 73.526 136.922 72.8296C138.118 72.1331 139.513 71.8346 141.007 71.8346C142.602 71.8346 143.798 72.4316 144.794 73.725C145.791 75.0185 146.389 76.4114 146.588 78.2023C146.688 78.8987 146.688 80.0927 146.688 81.6846L146.389 90.9375C146.389 93.8229 147.086 95.7132 148.382 96.8077C149.179 97.2057 149.478 97.6036 149.478 98.2006C149.478 98.7975 149.279 99.295 148.98 99.693C147.385 101.981 144.794 103.076 141.207 103.076C139.513 103.076 138.516 102.379 138.217 100.986C138.117 100.389 138.018 99.494 138.018 98.3001C138.018 97.1062 138.117 95.1163 138.317 92.4299C138.516 89.7436 138.616 87.8532 138.616 86.5598C138.616 82.8785 137.819 80.9881 136.124 80.9881C135.028 80.9881 134.231 81.5851 133.534 82.779C133.135 84.0724 132.836 85.1669 132.836 86.3608Z" fill="white"/>
</g>
<mask id="mask10_569_6688" style="mask-type:luminance" maskUnits="userSpaceOnUse" x="0" y="0" width="229" height="118">
<path d="M229 0H0V118H229V0Z" fill="white"/>
</mask>
<g mask="url(#mask10_569_6688)">
<path d="M175.188 89.1467L175.288 90.6391V90.9376C175.288 93.1264 175.985 94.7183 177.281 95.6138C177.879 96.1113 178.178 96.6087 178.178 97.2057C178.178 97.8027 178.078 98.3001 177.779 98.6981C176.882 99.9915 175.686 101.086 174.291 101.882C172.497 102.976 170.803 103.474 169.508 103.474C168.113 103.474 167.415 102.777 167.216 101.484C167.116 100.489 166.917 99.892 166.618 99.892L166.219 100.191C164.824 102.18 162.931 103.175 160.539 103.175C158.845 103.175 157.35 102.777 156.154 101.882C154.959 100.986 153.962 99.7925 153.364 98.3001C152.168 95.4148 151.57 92.231 151.57 88.7487C151.57 84.9679 152.567 81.2866 154.46 77.8043C155.457 76.1129 156.752 74.72 158.347 73.7251C159.941 72.6307 161.735 72.1332 163.728 72.1332C164.625 72.1332 165.422 72.2327 166.02 72.5312L166.917 72.9291C167.216 72.9291 167.415 72.6307 167.415 71.9342C167.515 71.2377 167.515 70.4418 167.515 69.3473C167.515 68.2529 167.515 67.3575 167.415 66.7605C167.315 66.064 167.216 65.5666 167.116 65.2681C167.017 64.9696 166.817 64.6711 166.718 64.4721C166.419 64.1737 166.02 63.7757 165.422 63.3777C164.924 62.9797 164.625 62.4823 164.625 61.7858C164.625 60.3929 165.821 59.0995 168.212 57.806C170.604 56.5126 172.497 55.9156 174.092 55.9156C175.288 55.9156 175.886 56.4131 176.085 57.5076C176.184 57.9055 176.185 58.801 176.185 59.9949C176.185 61.2883 176.085 63.7757 175.786 67.6559C175.487 71.5362 175.387 75.2175 175.387 78.6998V84.9679L175.487 88.1517V89.1467H175.188ZM162.134 92.032C163.728 92.032 164.924 91.1366 165.821 89.4452C166.718 87.6543 167.216 86.1618 167.216 84.7689C167.216 81.4856 166.319 79.8937 164.525 79.8937C163.03 79.8937 161.835 80.7892 160.838 82.6796C159.842 84.5699 159.343 86.2614 159.343 87.9528C159.443 90.4401 160.34 91.833 162.134 92.032Z" fill="white"/>
</g>
<mask id="mask11_569_6688" style="mask-type:luminance" maskUnits="userSpaceOnUse" x="0" y="0" width="229" height="118">
<path d="M229 0H0V118H229V0Z" fill="white"/>
</mask>
<g mask="url(#mask11_569_6688)">
<path d="M190.335 97.5043L190.435 99.0962C190.435 100.489 189.936 101.484 189.04 102.18C187.445 103.275 185.352 103.872 182.861 103.872C181.267 103.872 180.47 103.175 180.47 101.783L180.669 100.688C181.665 95.8129 182.164 89.7437 182.164 82.5801C182.164 80.3913 181.466 78.8989 180.171 77.9039C179.672 77.6054 179.473 77.108 179.473 76.511C179.473 75.2176 180.47 73.9242 182.562 72.7302C184.655 71.5363 186.249 70.8398 187.545 70.8398C188.84 70.8398 189.538 71.5363 189.638 72.9292C189.837 73.9242 189.936 74.6206 189.936 75.1181C189.936 75.6156 190.136 75.8145 190.435 75.8145C190.634 75.8145 190.833 75.7151 190.933 75.5161C191.033 75.3171 191.132 75.1181 191.232 74.9191C191.332 74.7201 191.531 74.4216 191.929 73.9242C192.328 73.4267 192.727 73.0287 193.125 72.7302C194.221 71.7353 195.417 71.3373 196.812 71.3373C197.709 71.3373 198.606 71.6358 199.403 72.1333C200.998 73.1282 201.895 75.1181 201.895 78.1029C201.895 79.9933 201.496 81.5852 200.799 82.9781C200.001 84.3711 198.805 85.0675 197.211 85.0675C195.118 85.0675 194.122 83.8736 194.122 81.5852L194.222 80.6898C194.222 79.9933 193.923 79.5953 193.325 79.5953C191.132 79.5953 190.036 82.7791 190.036 89.1468C189.837 90.8382 189.936 93.624 190.335 97.5043Z" fill="white"/>
</g>
<mask id="mask12_569_6688" style="mask-type:luminance" maskUnits="userSpaceOnUse" x="0" y="0" width="229" height="118">
<path d="M229 0H0V118H229V0Z" fill="white"/>
</mask>
<g mask="url(#mask12_569_6688)">
<path d="M205.681 93.3255L205.881 82.9781C205.881 80.9882 205.582 79.4958 204.884 78.5009C204.187 77.5059 203.888 76.71 203.888 76.312C203.888 75.1181 204.984 73.9241 207.276 72.8297C209.468 71.7353 211.262 71.1383 212.358 71.1383C213.953 71.1383 214.75 72.1333 214.75 74.2226C214.75 75.715 214.65 77.5059 214.451 79.5953C214.252 81.6847 214.152 83.5751 214.152 85.366C214.152 89.1467 215.049 91.0371 216.743 91.0371H217.042C219.134 91.0371 220.131 88.0523 220.131 81.9832C220.131 80.2918 219.832 78.7994 219.334 77.7049C218.835 77.108 218.636 76.511 218.636 76.0135C218.636 74.8196 219.633 73.7252 221.626 72.9292C223.619 72.0338 225.313 71.6358 226.808 71.6358C228.302 71.6358 229 72.3322 229 73.7252C229 75.2176 228.9 76.71 228.701 78.2024C228.302 81.4857 228.103 85.2665 228.103 89.7437L228.302 97.6037C228.302 102.18 228.003 105.762 227.406 108.349C226.808 110.936 225.413 113.324 223.419 115.314C221.327 117.304 218.835 118.299 215.946 118.299C214.252 118.299 212.757 117.801 211.461 116.906C210.166 115.911 209.468 114.617 209.468 112.826C209.468 111.831 209.767 111.035 210.265 110.438C210.863 109.842 211.362 109.543 211.96 109.444L212.757 109.344C215.148 109.344 216.942 108.349 218.038 106.459C219.134 104.568 219.633 102.18 219.633 99.0962C219.633 98.3997 219.533 98.0017 219.334 98.0017L218.736 98.3002C217.141 101.186 214.949 102.578 212.059 102.578C207.874 102.18 205.681 99.2951 205.681 93.3255Z" fill="white"/>
</g>
<mask id="mask13_569_6688" style="mask-type:luminance" maskUnits="userSpaceOnUse" x="0" y="0" width="229" height="118">
<path d="M229 0H0V118H229V0Z" fill="white"/>
</mask>
<g mask="url(#mask13_569_6688)">
<path d="M144.296 11.3423C144.495 11.7403 144.794 12.0388 145.193 12.4368C144.695 12.5362 144.097 12.7352 143.698 12.8347C142.602 13.3322 141.705 14.6256 142.602 15.7201C143.399 16.715 145.093 16.516 146.09 16.118C146.289 16.0185 146.488 15.919 146.688 15.8196C146.688 16.0185 146.787 16.118 146.787 16.317C147.086 17.4115 147.883 18.8044 149.179 18.2074C150.175 17.8094 150.574 16.715 150.375 15.7201C150.275 15.3221 150.175 15.0236 149.976 14.7251C150.375 14.8246 150.873 14.8246 151.272 14.7251C152.368 14.5261 153.265 13.6307 153.265 12.5363C153.265 12.0388 153.065 11.4418 152.667 11.1433C152.168 10.7454 151.57 10.7454 150.973 11.0438C150.076 11.3423 149.279 11.7403 148.382 12.1383C148.481 11.2428 148.382 10.3474 147.983 9.65092C147.385 8.65598 146.09 8.05901 144.993 8.3575C144.396 8.55648 143.798 9.05396 143.698 9.65092C143.598 10.1484 143.997 10.8448 144.296 11.3423Z" fill="#F0B61B"/>
</g>
<mask id="mask14_569_6688" style="mask-type:luminance" maskUnits="userSpaceOnUse" x="0" y="0" width="229" height="118">
<path d="M229 0H0V118H229V0Z" fill="white"/>
</mask>
<g mask="url(#mask14_569_6688)">
<path d="M146.887 13.7302C146.987 14.1281 147.485 14.3271 147.883 14.1281C148.282 14.0286 148.481 13.6307 148.282 13.2327C148.182 13.0337 148.083 12.9342 147.883 12.8347H147.784C147.684 12.8347 147.485 12.8347 147.385 12.8347C147.186 12.9342 147.086 13.0337 146.987 13.2327C146.787 13.3322 146.787 13.5312 146.887 13.7302Z" fill="#EE7623"/>
</g>
<mask id="mask15_569_6688" style="mask-type:luminance" maskUnits="userSpaceOnUse" x="0" y="0" width="229" height="118">
<path d="M229 0H0V118H229V0Z" fill="white"/>
</mask>
<g mask="url(#mask15_569_6688)">
<path d="M200.699 32.1366C200.699 32.1366 192.727 10.3474 205.881 13.9292C220.33 17.8095 200.699 32.1366 200.699 32.1366Z" fill="#F09E1F"/>
</g>
<mask id="mask16_569_6688" style="mask-type:luminance" maskUnits="userSpaceOnUse" x="0" y="0" width="229" height="118">
<path d="M229 0H0V118H229V0Z" fill="white"/>
</mask>
<g mask="url(#mask16_569_6688)">
<path d="M200.699 32.1366C200.699 32.1366 177.779 28.1568 187.445 18.5059C198.108 7.95953 200.699 32.1366 200.699 32.1366Z" fill="#F09E1F"/>
</g>
<mask id="mask17_569_6688" style="mask-type:luminance" maskUnits="userSpaceOnUse" x="0" y="0" width="229" height="118">
<path d="M229 0H0V118H229V0Z" fill="white"/>
</mask>
<g mask="url(#mask17_569_6688)">
<path d="M200.699 32.1365C200.699 32.1365 185.751 49.9459 182.263 36.8127C178.477 22.2866 200.699 32.1365 200.699 32.1365Z" fill="#F09E1F"/>
</g>
<mask id="mask18_569_6688" style="mask-type:luminance" maskUnits="userSpaceOnUse" x="0" y="0" width="229" height="118">
<path d="M229 0H0V118H229V0Z" fill="white"/>
</mask>
<g mask="url(#mask18_569_6688)">
<path d="M200.699 32.1366C200.699 32.1366 208.671 53.9258 195.517 50.344C181.067 46.4637 200.699 32.1366 200.699 32.1366Z" fill="#F09E1F"/>
</g>
<mask id="mask19_569_6688" style="mask-type:luminance" maskUnits="userSpaceOnUse" x="0" y="0" width="229" height="118">
<path d="M229 0H0V118H229V0Z" fill="white"/>
</mask>
<g mask="url(#mask19_569_6688)">
<path d="M200.699 32.1366C200.699 32.1366 223.619 36.1164 213.953 45.7673C203.29 56.3137 200.699 32.1366 200.699 32.1366Z" fill="#F09E1F"/>
</g>
<mask id="mask20_569_6688" style="mask-type:luminance" maskUnits="userSpaceOnUse" x="0" y="0" width="229" height="118">
<path d="M229 0H0V118H229V0Z" fill="white"/>
</mask>
<g mask="url(#mask20_569_6688)">
<path d="M200.699 32.1366C200.699 32.1366 215.647 14.3271 219.134 27.4604C223.021 41.9865 200.699 32.1366 200.699 32.1366Z" fill="#F09E1F"/>
</g>
<mask id="mask21_569_6688" style="mask-type:luminance" maskUnits="userSpaceOnUse" x="0" y="0" width="229" height="118">
<path d="M229 0H0V118H229V0Z" fill="white"/>
</mask>
<g mask="url(#mask21_569_6688)">
<path d="M200.699 32.1366C200.699 32.1366 194.52 15.4216 204.685 18.108C215.746 21.1923 200.699 32.1366 200.699 32.1366Z" fill="#F0B61B"/>
</g>
<mask id="mask22_569_6688" style="mask-type:luminance" maskUnits="userSpaceOnUse" x="0" y="0" width="229" height="118">
<path d="M229 0H0V118H229V0Z" fill="white"/>
</mask>
<g mask="url(#mask22_569_6688)">
<path d="M200.699 32.1366C200.699 32.1366 183.16 29.0522 190.534 21.6897C198.706 13.6307 200.699 32.1366 200.699 32.1366Z" fill="#F0B61B"/>
</g>
<mask id="mask23_569_6688" style="mask-type:luminance" maskUnits="userSpaceOnUse" x="0" y="0" width="229" height="118">
<path d="M229 0H0V118H229V0Z" fill="white"/>
</mask>
<g mask="url(#mask23_569_6688)">
<path d="M200.699 32.1365C200.699 32.1365 189.239 45.7672 186.548 35.7183C183.658 24.575 200.699 32.1365 200.699 32.1365Z" fill="#F0B61B"/>
</g>
<mask id="mask24_569_6688" style="mask-type:luminance" maskUnits="userSpaceOnUse" x="0" y="0" width="229" height="118">
<path d="M229 0H0V118H229V0Z" fill="white"/>
</mask>
<g mask="url(#mask24_569_6688)">
<path d="M200.699 32.1366C200.699 32.1366 206.877 48.8516 196.713 46.1653C185.651 43.1804 200.699 32.1366 200.699 32.1366Z" fill="#F0B61B"/>
</g>
<mask id="mask25_569_6688" style="mask-type:luminance" maskUnits="userSpaceOnUse" x="0" y="0" width="229" height="118">
<path d="M229 0H0V118H229V0Z" fill="white"/>
</mask>
<g mask="url(#mask25_569_6688)">
<path d="M200.699 32.1366C200.699 32.1366 218.238 35.2209 210.863 42.5835C202.692 50.6425 200.699 32.1366 200.699 32.1366Z" fill="#F0B61B"/>
</g>
<mask id="mask26_569_6688" style="mask-type:luminance" maskUnits="userSpaceOnUse" x="0" y="0" width="229" height="118">
<path d="M229 0H0V118H229V0Z" fill="white"/>
</mask>
<g mask="url(#mask26_569_6688)">
<path d="M200.699 32.1366C200.699 32.1366 212.159 18.5059 214.849 28.5548C217.739 39.6981 200.699 32.1366 200.699 32.1366Z" fill="#F0B61B"/>
</g>
<mask id="mask27_569_6688" style="mask-type:luminance" maskUnits="userSpaceOnUse" x="0" y="0" width="229" height="118">
<path d="M229 0H0V118H229V0Z" fill="white"/>
</mask>
<g mask="url(#mask27_569_6688)">
<path d="M206.379 33.7285C207.276 30.5447 205.482 27.3609 202.293 26.4655C199.104 25.57 195.916 27.3609 195.019 30.5447C194.122 33.7285 195.916 36.9123 199.104 37.8078C202.293 38.7032 205.482 36.9123 206.379 33.7285Z" fill="#F07622"/>
</g>
<mask id="mask28_569_6688" style="mask-type:luminance" maskUnits="userSpaceOnUse" x="0" y="0" width="229" height="118">
<path d="M229 0H0V118H229V0Z" fill="white"/>
</mask>
<g mask="url(#mask28_569_6688)">
<path d="M15.745 64.0742C15.745 64.0742 16.6419 71.9343 12.5561 69.6459C8.17146 67.1585 15.745 64.0742 15.745 64.0742Z" fill="#F0B61B"/>
</g>
<mask id="mask29_569_6688" style="mask-type:luminance" maskUnits="userSpaceOnUse" x="0" y="0" width="229" height="118">
<path d="M229 0H0V118H229V0Z" fill="white"/>
</mask>
<g mask="url(#mask29_569_6688)">
<path d="M15.745 64.0742C15.745 64.0742 23.0196 67.258 19.0335 69.6459C14.6488 72.2327 15.745 64.0742 15.745 64.0742Z" fill="#F0B61B"/>
</g>
<mask id="mask30_569_6688" style="mask-type:luminance" maskUnits="userSpaceOnUse" x="0" y="0" width="229" height="118">
<path d="M229 0H0V118H229V0Z" fill="white"/>
</mask>
<g mask="url(#mask30_569_6688)">
<path d="M15.745 64.0742C15.745 64.0742 22.1227 59.398 22.2224 63.9747C22.322 69.0489 15.745 64.0742 15.745 64.0742Z" fill="#F0B61B"/>
</g>
<mask id="mask31_569_6688" style="mask-type:luminance" maskUnits="userSpaceOnUse" x="0" y="0" width="229" height="118">
<path d="M229 0H0V118H229V0Z" fill="white"/>
</mask>
<g mask="url(#mask31_569_6688)">
<path d="M15.745 64.0742C15.745 64.0742 14.8481 56.2142 18.9339 58.5025C23.4182 60.8904 15.745 64.0742 15.745 64.0742Z" fill="#F0B61B"/>
</g>
<mask id="mask32_569_6688" style="mask-type:luminance" maskUnits="userSpaceOnUse" x="0" y="0" width="229" height="118">
<path d="M229 0H0V118H229V0Z" fill="white"/>
</mask>
<g mask="url(#mask32_569_6688)">
<path d="M15.745 64.0742C15.745 64.0742 8.47041 60.8903 12.4565 58.5025C16.8412 55.9156 15.745 64.0742 15.745 64.0742Z" fill="#F0B61B"/>
</g>
<mask id="mask33_569_6688" style="mask-type:luminance" maskUnits="userSpaceOnUse" x="0" y="0" width="229" height="118">
<path d="M229 0H0V118H229V0Z" fill="white"/>
</mask>
<g mask="url(#mask33_569_6688)">
<path d="M15.745 64.0742C15.745 64.0742 9.36726 68.7504 9.26761 64.1736C9.26761 59 15.745 64.0742 15.745 64.0742Z" fill="#F0B61B"/>
</g>
<mask id="mask34_569_6688" style="mask-type:luminance" maskUnits="userSpaceOnUse" x="0" y="0" width="229" height="118">
<path d="M229 0H0V118H229V0Z" fill="white"/>
</mask>
<g mask="url(#mask34_569_6688)">
<path d="M13.5527 62.7808C12.8551 64.0742 13.2537 65.6661 14.5492 66.3626C15.8447 67.0591 17.4391 66.6611 18.1367 65.3677C18.8342 64.0742 18.4356 62.4823 17.1401 61.7859C15.8447 61.0894 14.2502 61.4874 13.5527 62.7808Z" fill="#F07622"/>
</g>
<mask id="mask35_569_6688" style="mask-type:luminance" maskUnits="userSpaceOnUse" x="0" y="0" width="229" height="118">
<path d="M229 0H0V118H229V0Z" fill="white"/>
</mask>
<g mask="url(#mask35_569_6688)">
<path d="M24.5144 88.0522C24.5144 88.0522 25.9095 100.39 19.5318 96.9072C12.4565 93.027 24.5144 88.0522 24.5144 88.0522Z" fill="#F0B61B"/>
</g>
<mask id="mask36_569_6688" style="mask-type:luminance" maskUnits="userSpaceOnUse" x="0" y="0" width="229" height="118">
<path d="M229 0H0V118H229V0Z" fill="white"/>
</mask>
<g mask="url(#mask36_569_6688)">
<path d="M24.5144 88.0522C24.5144 88.0522 35.9743 93.027 29.6963 96.8077C22.8203 100.986 24.5144 88.0522 24.5144 88.0522Z" fill="#F0B61B"/>
</g>
<mask id="mask37_569_6688" style="mask-type:luminance" maskUnits="userSpaceOnUse" x="0" y="0" width="229" height="118">
<path d="M229 0H0V118H229V0Z" fill="white"/>
</mask>
<g mask="url(#mask37_569_6688)">
<path d="M24.5144 88.0523C24.5144 88.0523 34.5792 80.6897 34.6789 87.9528C34.8782 96.0118 24.5144 88.0523 24.5144 88.0523Z" fill="#F0B61B"/>
</g>
<mask id="mask38_569_6688" style="mask-type:luminance" maskUnits="userSpaceOnUse" x="0" y="0" width="229" height="118">
<path d="M229 0H0V118H229V0Z" fill="white"/>
</mask>
<g mask="url(#mask38_569_6688)">
<path d="M24.5144 88.0522C24.5144 88.0522 23.1192 75.715 29.497 79.1973C36.5723 83.177 24.5144 88.0522 24.5144 88.0522Z" fill="#F0B61B"/>
</g>
<mask id="mask39_569_6688" style="mask-type:luminance" maskUnits="userSpaceOnUse" x="0" y="0" width="229" height="118">
<path d="M229 0H0V118H229V0Z" fill="white"/>
</mask>
<g mask="url(#mask39_569_6688)">
<path d="M24.5144 88.0523C24.5144 88.0523 13.0544 83.0776 19.3325 79.2968C26.3081 75.2175 24.5144 88.0523 24.5144 88.0523Z" fill="#F0B61B"/>
</g>
<mask id="mask40_569_6688" style="mask-type:luminance" maskUnits="userSpaceOnUse" x="0" y="0" width="229" height="118">
<path d="M229 0H0V118H229V0Z" fill="white"/>
</mask>
<g mask="url(#mask40_569_6688)">
<path d="M24.5144 88.0522C24.5144 88.0522 14.4495 95.4148 14.3499 88.1517C14.2502 80.0927 24.5144 88.0522 24.5144 88.0522Z" fill="#F0B61B"/>
</g>
<mask id="mask41_569_6688" style="mask-type:luminance" maskUnits="userSpaceOnUse" x="0" y="0" width="229" height="118">
<path d="M229 0H0V118H229V0Z" fill="white"/>
</mask>
<g mask="url(#mask41_569_6688)">
<path d="M20.9269 86.0624C19.8307 88.0523 20.5283 90.5397 22.5213 91.7336C24.5144 92.828 27.0057 92.1316 28.2015 90.1417C29.2976 88.1518 28.6001 85.6645 26.607 84.4705C24.614 83.3761 22.0231 84.0725 20.9269 86.0624Z" fill="#F07622"/>
</g>
</svg>
