<svg width="233" height="206" viewBox="0 0 233 206" fill="none" xmlns="http://www.w3.org/2000/svg">
<g opacity="0.2">
<path d="M225.488 18.5565C225.488 18.5565 145.409 -199.648 277.015 -164.081C421.947 -124.881 225.488 18.5565 225.488 18.5565Z" fill="#F09E1F"/>
<path d="M225.49 18.5574C225.49 18.5574 -3.65605 -21.2261 92.9859 -117.324C199.507 -223.17 225.49 18.5574 225.49 18.5574Z" fill="#F09E1F"/>
<path d="M225.489 18.5581C225.489 18.5581 76.4433 196.979 41.4792 65.2923C2.9645 -79.7319 225.489 18.5581 225.489 18.5581Z" fill="#F09E1F"/>
<path d="M225.489 18.5566C225.489 18.5566 305.506 236.782 173.921 201.194C28.989 161.995 225.427 18.5566 225.427 18.5566" fill="#F09E1F"/>
<path d="M225.49 18.5565C225.49 18.5565 454.657 58.3609 358.015 154.459C251.494 260.305 225.49 18.5565 225.49 18.5565Z" fill="#F09E1F"/>
<path d="M225.49 18.5563C225.49 18.5563 374.557 -159.865 409.521 -28.178C448.036 116.867 225.49 18.5563 225.49 18.5563Z" fill="#F09E1F"/>
<path d="M225.489 18.5564C225.489 18.5564 164.103 -148.698 264.985 -121.438C376.08 -91.3808 225.489 18.5564 225.489 18.5564Z" fill="#F0B61B"/>
<path d="M225.491 18.5579C225.491 18.5579 49.8559 -11.9373 123.92 -85.5975C205.502 -166.73 225.491 18.5579 225.491 18.5579Z" fill="#F0B61B"/>
<path d="M225.487 18.5582C225.487 18.5582 111.238 155.338 84.4403 54.3967C54.9276 -56.7928 225.487 18.5582 225.487 18.5582Z" fill="#F0B61B"/>
<path d="M225.489 18.5566C225.489 18.5566 286.896 185.831 186.014 158.55C74.9183 128.514 225.489 18.5566 225.489 18.5566Z" fill="#F0B61B"/>
<path d="M225.49 18.5565C225.49 18.5565 401.146 49.0724 327.061 122.733C245.479 203.865 225.49 18.5565 225.49 18.5565Z" fill="#F0B61B"/>
<path d="M225.49 18.5571C225.49 18.5571 339.76 -118.202 366.558 -17.2607C396.07 93.9079 225.49 18.5571 225.49 18.5571Z" fill="#F0B61B"/>
<path d="M282.532 34.6729C285.712 23.4263 285.484 11.4903 281.878 0.372936C278.271 -10.7444 271.449 -20.544 262.271 -27.7875C253.094 -35.031 241.974 -39.3933 230.316 -40.3232C218.659 -41.2531 206.987 -38.7088 196.776 -33.0118C186.565 -27.3149 178.273 -18.721 172.948 -8.31609C167.622 2.08879 165.503 13.8375 166.857 25.4458C168.211 37.054 172.978 48.0008 180.556 56.9025C188.133 65.8042 198.181 72.2616 209.429 75.4585C216.909 77.5871 224.736 78.2201 232.461 77.3215C240.185 76.423 247.657 74.0105 254.448 70.2219C261.238 66.4333 267.214 61.3431 272.033 55.243C276.853 49.143 280.42 42.1529 282.532 34.6729Z" fill="#F07622"/>
</g>
<g opacity="0.2">
<path d="M26.4987 136.227C26.4987 136.227 15.2409 105.551 33.7425 110.551C54.1175 116.062 26.4987 136.227 26.4987 136.227Z" fill="#F09E1F"/>
<path d="M26.4983 136.227C26.4983 136.227 -5.71587 130.634 7.8704 117.124C22.8455 102.244 26.4983 136.227 26.4983 136.227Z" fill="#F09E1F"/>
<path d="M26.4985 136.227C26.4985 136.227 5.54508 161.31 0.629708 142.797C-4.78483 122.409 26.4985 136.227 26.4985 136.227Z" fill="#F09E1F"/>
<path d="M26.499 136.227C26.499 136.227 37.748 166.905 19.2493 161.902C-1.12574 156.392 26.4902 136.227 26.4902 136.227" fill="#F09E1F"/>
<path d="M26.499 136.227C26.499 136.227 58.7161 141.822 45.1299 155.332C30.1547 170.212 26.499 136.227 26.499 136.227Z" fill="#F09E1F"/>
<path d="M26.499 136.227C26.499 136.227 47.4554 111.144 52.3708 129.657C57.7853 150.048 26.499 136.227 26.499 136.227Z" fill="#F09E1F"/>
<path d="M26.4989 136.227C26.4989 136.227 17.8691 112.714 32.0514 116.546C47.6696 120.772 26.4989 136.227 26.4989 136.227Z" fill="#F0B61B"/>
<path d="M26.4982 136.227C26.4982 136.227 1.80685 131.94 12.219 121.584C23.6882 110.178 26.4982 136.227 26.4982 136.227Z" fill="#F0B61B"/>
<path d="M26.4988 136.227C26.4988 136.227 10.4372 155.456 6.66991 141.266C2.52092 125.634 26.4988 136.227 26.4988 136.227Z" fill="#F0B61B"/>
<path d="M26.4981 136.227C26.4981 136.227 35.1308 159.743 20.9485 155.907C5.33032 151.685 26.4981 136.227 26.4981 136.227Z" fill="#F0B61B"/>
<path d="M26.499 136.227C26.499 136.227 51.1933 140.517 40.7783 150.872C29.3091 162.278 26.499 136.227 26.499 136.227Z" fill="#F0B61B"/>
<path d="M26.499 136.227C26.499 136.227 42.5635 117 46.3308 131.191C50.4798 146.82 26.499 136.227 26.499 136.227Z" fill="#F0B61B"/>
<path d="M34.5182 138.492C34.9652 136.911 34.9331 135.233 34.4262 133.67C33.9192 132.107 32.96 130.73 31.6698 129.712C30.3796 128.693 28.8163 128.08 27.1775 127.949C25.5386 127.818 23.8978 128.176 22.4623 128.977C21.0268 129.778 19.861 130.986 19.1124 132.449C18.3637 133.912 18.0658 135.563 18.2561 137.195C18.4465 138.827 19.1167 140.366 20.1819 141.618C21.2472 142.869 22.6598 143.777 24.2411 144.226C25.2926 144.525 26.3929 144.614 27.4789 144.488C28.5649 144.362 29.6153 144.023 30.57 143.49C31.5246 142.957 32.3647 142.242 33.0422 141.384C33.7197 140.527 34.2213 139.544 34.5182 138.492Z" fill="#F07622"/>
</g>
</svg>
