<svg width="1920" height="331" viewBox="0 0 1920 331" fill="none" xmlns="http://www.w3.org/2000/svg">
<path d="M1919.93 22.1087V170.092C1861.81 156.283 1799.41 147.953 1733.29 147.953C1584.79 147.953 1496.49 227.023 1452.46 290.803C1419.47 338.521 1407.39 393.524 1346.74 434.911C1327.4 448.101 1299.98 459.394 1266.39 457.527C1222.55 455.071 1187.53 434.566 1162.44 417.378C1123.27 390.51 1097.28 358.174 1033.52 344.69C1002.86 338.186 969.44 335.913 936.379 335.477C884.258 334.757 830.604 338.643 785.19 351.975C703.598 375.93 629.154 439.385 519.788 418.413C504.118 415.323 489.307 410.751 475.876 404.857C363.361 356.398 292.653 288.266 186.388 236.916C131.02 210.17 68.5207 186.286 0 170.011V22.0785C68.537 38.3125 131.02 62.2273 186.388 88.9729C292.653 140.323 363.361 208.456 475.876 256.914C489.316 262.84 504.151 267.437 519.854 270.541C629.186 291.513 703.712 228.058 785.255 204.103C830.669 190.771 884.324 186.854 936.444 187.605C969.505 188.072 1002.93 190.314 1033.59 196.818C1097.23 210.302 1123.19 242.638 1162.5 269.506C1187.6 286.694 1222.62 307.199 1266.45 309.655C1300.05 311.532 1327.46 300.259 1346.8 287.039C1407.46 245.621 1419.55 190.649 1452.53 142.85C1496.59 79.0699 1584.87 0 1733.35 0C1799.47 0 1861.87 8.33006 1920 22.1493" fill="#F29F05"/>
<path d="M1919.93 129.27V679.355C1878.34 665.564 1842.42 643.438 1801.72 627.73C1733.36 601.365 1643.43 593.121 1563.11 604.681C1477.9 616.961 1449.23 651.134 1399.15 687.832C1374.08 706.227 1339.01 728.15 1295.2 730.777C1261.6 732.805 1234.18 720.728 1214.84 706.592C1154.19 662.289 1142.09 603.464 1109.11 552.377C1065.05 484.163 976.768 399.592 828.282 399.592C684.251 399.592 557.535 441.969 455.232 494.83C348.963 549.751 278.254 622.599 165.735 674.447C107.378 701.319 51.5024 695.579 0 679V129.27C68.5394 146.66 131.024 172.204 186.395 200.82C292.663 255.74 363.373 328.589 475.892 380.427C489.185 386.69 504.012 391.586 519.806 394.927C629.143 417.358 703.671 349.488 785.216 323.874C830.632 309.616 884.288 305.459 936.411 306.229C969.473 306.696 1002.89 309.119 1033.56 316.076C1097.2 330.505 1123.16 365.084 1162.48 393.822C1187.58 412.206 1222.6 434.14 1266.43 436.756C1300.03 438.784 1327.44 426.707 1346.78 412.582C1407.44 368.278 1419.53 309.444 1452.51 258.357C1496.57 190.152 1584.86 105.581 1733.34 105.581C1799.47 105.581 1861.87 114.485 1920 129.27" fill="#F27507"/>
</svg>
