<svg width="590" height="82" viewBox="0 0 590 82" fill="none" xmlns="http://www.w3.org/2000/svg">
<g clip-path="url(#clip0_791_289)">
<mask id="mask0_791_289" style="mask-type:luminance" maskUnits="userSpaceOnUse" x="0" y="0" width="590" height="82">
<path d="M589.6 0H0V81.9H589.6V0Z" fill="white"/>
</mask>
<g mask="url(#mask0_791_289)">
<path d="M50.1 36.3L50.3 49.2L50 56.2C49.9 57.8 49.3 59.1 48.3 60.2C47.3 61.3 46.1 62 44.7 62.5C42.3 63.3 40.5 63.6 39.1 63.6C37.8 63.6 37.1 63 37.1 61.8L37.3 60.8C38 59 38.7 56 39.7 52L40.1 50C41.6 41.5 42.4 31.3 42.4 19.7C42.4 15.3 41.9 12.1 40.9 10.1C40.3 9.4 39.9 8.6 39.9 7.7C39.9 5.3 41.9 3.4 45.9 2.1C49.9 0.7 53.2 0 56 0C58.8 0 60.4 1.1 61 3.4C61.7 5.8 62.3 8.4 62.7 11.1C63.6 16.8 64.5 19.6 65.2 19.6C65.7 19.6 66.2 19.3 66.5 18.6C68.4 13.8 69.6 10.5 70.2 8.8C70.8 7.1 71.1 6 71.3 5.6C71.5 5.2 72 4.5 72.9 3.6C73.8 2.7 75 2 76.4 1.6C78.5 0.8 80.9 0.4 83.5 0.4C87.9 0.4 90.1 1.3 90.1 3.2C90.1 3.8 89.9 4.6 89.4 5.6C88 7.6 87.1 11.5 86.6 17.3C86 23 85.7 28.7 85.7 34.3C85.7 45.6 86.5 51.8 88.1 52.9C89.1 53.7 89.6 54.7 89.6 55.8C89.6 56.9 88.8 58 87.3 59.1C85.8 60.2 84.1 61 82.4 61.5C80.6 62 79.1 62.3 77.8 62.3C76.5 62.3 75.5 62 74.8 61.5C74.1 61 73.7 60.4 73.6 59.9L73.4 59.1C73.1 58.2 73 56.5 73 54C73 50 73.3 44.8 73.8 38.3L74 35.4C74.5 31.1 74.7 27.7 74.7 25.2C74.7 22.7 74.5 21.5 74.1 21.5C73 21.5 71 26.6 68.2 36.7C67 40.8 66 43.8 65.2 45.6L64.7 46.7C63.9 48.6 62.6 49.6 60.7 49.6C60.1 49.6 59.6 49.4 59.2 49.1C58.8 48.8 58.6 48.3 58.5 47.6C57.5 45.1 55.9 38.6 53.6 28L52.5 22.8C52.2 21.9 51.9 21.5 51.4 21.5C50.5 21.5 50.1 26.4 50.1 36.3Z" fill="#00B1D8"/>
</g>
<mask id="mask1_791_289" style="mask-type:luminance" maskUnits="userSpaceOnUse" x="0" y="0" width="590" height="82">
<path d="M589.6 0H0V81.9H589.6V0Z" fill="white"/>
</mask>
<g mask="url(#mask1_791_289)">
<path d="M120.5 34.4L120.3 45.7C120.3 50.2 120.9 52.8 122 53.5C122.7 54 123.1 54.7 123.1 55.6C123.1 57.2 122.1 58.6 120 60C117.9 61.4 115.8 62 113.6 62C112.5 62 111.7 61.8 111.2 61.3C110.7 60.8 110.4 60.3 110.4 59.8C110.4 58.3 110.2 57.6 109.8 57.6C109.7 57.6 109.4 57.9 108.8 58.5C108.2 59.1 107.3 59.7 106 60.4C104.8 61 103.2 61.3 101.4 61.3C99.5 61.3 97.9 60.8 96.5 59.9C95.1 59 94.1 57.8 93.5 56.3C92.5 53.9 92 51.6 92 49.5C92 47.4 92.3 45.4 93 43.6C93.6 41.8 94.5 40.3 95.4 39.1C96.4 38 97.5 37 98.8 36.1C100.1 35.2 101.3 34.6 102.5 34.2C103.6 33.8 104.8 33.5 106 33.2C107.7 32.9 108.8 32.7 109.5 32.7L110.3 31.6C110.2 29.8 108.9 28.8 106.3 28.8C103.7 28.8 101.5 29.3 99.9 30.3C99.2 30.7 98.6 30.9 98 30.9C96.7 30.9 96.1 29.9 96.1 28C96.1 23 100.1 20.5 108.1 20.5C114.3 20.5 118.1 22.6 119.7 26.7C120.2 28.6 120.5 31.2 120.5 34.4ZM103.1 47.3C103.1 49.6 103.9 50.7 105.5 50.7C107.1 50.7 108.4 49.9 109.4 48.2C110.4 46.5 110.9 45 110.9 43.7C110.9 41.3 110 40 108.3 40C106.7 40 105.5 40.8 104.5 42.4C103.6 44 103.1 45.6 103.1 47.3Z" fill="#00B1D8"/>
</g>
<mask id="mask2_791_289" style="mask-type:luminance" maskUnits="userSpaceOnUse" x="0" y="0" width="590" height="82">
<path d="M589.6 0H0V81.9H589.6V0Z" fill="white"/>
</mask>
<g mask="url(#mask2_791_289)">
<path d="M139.1 54.2002L139.3 56.2002C139.3 58.0002 138.7 59.3002 137.4 60.2002C135.3 61.7002 132.6 62.4002 129.4 62.4002C127.3 62.4002 126.3 61.5002 126.3 59.7002L126.5 58.3002C127.8 51.9002 128.4 44.1002 128.4 34.9002C128.4 32.1002 127.6 30.1002 125.9 28.9002C125.3 28.5002 125 27.9002 125 27.0002C125 25.3002 126.3 23.7002 129 22.1002C131.7 20.5002 133.8 19.7002 135.4 19.7002C137 19.7002 137.9 20.6002 138.2 22.4002C138.4 23.6002 138.5 24.6002 138.5 25.2002C138.5 25.8002 138.7 26.1002 139.1 26.1002C139.4 26.1002 139.6 26.0002 139.7 25.7002C139.8 25.5002 140 25.2002 140.1 25.0002C140.2 24.8002 140.5 24.3002 141 23.7002C141.5 23.1002 142 22.6002 142.5 22.1002C143.9 20.9002 145.5 20.2002 147.2 20.2002C148.3 20.2002 149.5 20.6002 150.6 21.3002C152.7 22.6002 153.8 25.2002 153.8 29.0002C153.8 31.4002 153.3 33.5002 152.3 35.3002C151.3 37.1002 149.8 38.0002 147.6 38.0002C144.9 38.0002 143.5 36.5002 143.5 33.5002L143.6 32.3002C143.6 31.4002 143.2 30.9002 142.5 30.9002C139.6 30.9002 138.2 35.0002 138.2 43.3002C138.4 45.6002 138.7 49.2002 139.1 54.2002Z" fill="#00B1D8"/>
</g>
<mask id="mask3_791_289" style="mask-type:luminance" maskUnits="userSpaceOnUse" x="0" y="0" width="590" height="82">
<path d="M589.6 0H0V81.9H589.6V0Z" fill="white"/>
</mask>
<g mask="url(#mask3_791_289)">
<path d="M187.4 20.9001C186.4 29.7001 185.9 38.6001 185.9 47.6001C185.9 56.7001 185.4 63.2001 184.5 67.1001C183.6 71.0001 181.7 74.3001 179 76.8001C176.3 79.3001 173 80.6001 169.2 80.6001C167 80.6001 165.1 80.0001 163.4 78.8001C161.8 77.6001 161 75.9001 161 73.7001C161 72.3001 161.4 71.3001 162.1 70.5001C162.8 69.7001 163.6 69.2001 164.3 69.1001L165.4 68.9001C167.3 68.8001 169 68.3001 170.3 67.4001C171.6 66.5001 172.6 65.3001 173.1 64.0001C174 61.8001 174.4 59.8001 174.4 57.8001V57.2001C174.3 56.8001 174.2 56.6001 173.8 56.6001L173 57.0001C172.3 58.0001 171.4 58.8001 170.4 59.4001C169.3 60.0001 168.4 60.3001 167.7 60.4001L166.6 60.5001C164.3 60.5001 162.3 59.9001 160.7 58.7001C159.1 57.5001 157.9 55.9001 157.3 54.0001C156.2 50.6001 155.6 47.4001 155.6 44.5001C155.6 41.6001 155.9 38.8001 156.4 36.3001C156.9 33.7001 157.8 31.2001 159 28.8001C160.2 26.4001 161.8 24.4001 164 22.9001C166.2 21.4001 168.4 20.6001 170.8 20.6001C173.2 20.6001 175 21.1001 176.2 22.2001C176.4 22.5001 176.6 22.7001 176.9 22.7001C177.2 22.7001 177.5 22.5001 177.7 22.2001C179.7 19.7001 182.1 18.4001 184.8 18.4001C186.5 18.3001 187.4 19.2001 187.4 20.9001ZM171.4 46.7001C172.7 46.7001 173.8 46.0001 174.6 44.6001C175.4 43.2001 175.8 41.3001 175.8 38.9001C175.8 36.5001 175.3 34.5001 174.3 32.7001C173.4 31.0001 172.2 30.1001 170.9 30.1001C169.6 30.1001 168.5 30.8001 167.7 32.2001C166.9 33.6001 166.4 35.5001 166.4 37.8001C166.4 40.1001 166.9 42.1001 167.8 43.9001C169 45.8001 170.1 46.7001 171.4 46.7001Z" fill="#00B1D8"/>
</g>
<mask id="mask4_791_289" style="mask-type:luminance" maskUnits="userSpaceOnUse" x="0" y="0" width="590" height="82">
<path d="M589.6 0H0V81.9H589.6V0Z" fill="white"/>
</mask>
<g mask="url(#mask4_791_289)">
<path d="M206.9 20C211.6 20 215.2 22.1 217.7 26.2C220.2 30.3 221.4 35.3 221.4 41.3C221.4 49.1 219.2 55.1 214.7 59.1C212.2 61.3 209.5 62.4 206.4 62.4C203.4 62.4 200.9 61.8 198.9 60.5C196.9 59.3 195.4 57.6 194.4 55.6C192.3 51.6 191.2 47.3 191.2 42.8C191.2 37.5 192.4 32.5 194.8 27.9C196 25.6 197.6 23.7 199.7 22.2C201.9 20.7 204.3 20 206.9 20ZM210.6 32.9C210 31.6 208.9 31 207.4 31C205.9 31 204.5 32 203.1 34.1C201.7 36.2 201 38.7 201 41.7C201 45.9 202.4 47.9 205.1 47.9C206.6 47.9 208.1 47 209.4 45.1C210.8 43.2 211.5 40.6 211.5 37.3C211.6 35.6 211.3 34.2 210.6 32.9Z" fill="#00B1D8"/>
</g>
<mask id="mask5_791_289" style="mask-type:luminance" maskUnits="userSpaceOnUse" x="0" y="0" width="590" height="82">
<path d="M589.6 0H0V81.9H589.6V0Z" fill="white"/>
</mask>
<g mask="url(#mask5_791_289)">
<path d="M249.1 19.7998C256.2 19.7998 259.8 21.8998 259.8 26.0998C259.8 27.2998 259.4 28.2998 258.6 29.0998C257.8 29.8998 256.9 30.2998 255.9 30.2998C254.9 30.2998 253.9 29.9998 253 29.4998C252.1 28.9998 251.1 28.6998 249.9 28.6998C247.1 28.6998 245.8 29.4998 245.8 31.0998C245.8 31.7998 246.2 32.3998 247.1 32.8998C253.5 36.0998 257.3 38.6998 258.6 40.6998C260.2 42.9998 261 45.7998 261 49.0998C261 50.2998 260.7 51.6998 260.2 53.3998C259.7 55.0998 258.9 56.4998 258 57.6998C257.1 58.8998 255.6 59.8998 253.6 60.8998C251.6 61.8998 249.2 62.3998 246.5 62.3998C244.6 62.3998 242.5 62.0998 240.3 61.3998C235.8 60.0998 233.6 57.3998 233.6 53.3998C233.6 51.4998 234.1 49.8998 235.2 48.4998C236.3 47.0998 237.6 46.3998 239.3 46.3998C240.9 46.3998 242.1 46.8998 242.8 47.8998C242.9 47.9998 243 48.1998 243.3 48.5998C243.6 48.9998 243.8 49.3998 244 49.5998C244.7 50.2998 245.6 50.6998 246.8 50.6998C247.9 50.6998 248.8 50.3998 249.5 49.7998C250.1 49.1998 250.5 48.4998 250.5 47.4998C250.5 46.4998 249.7 45.4998 248.2 44.4998C246.7 43.4998 245 42.5998 243.2 41.7998C241.4 40.9998 239.7 39.7998 238.2 38.1998C236.7 36.5998 235.9 34.5998 235.9 32.3998C235.9 28.5998 237.1 25.5998 239.6 23.3998C241.9 20.8998 245.1 19.7998 249.1 19.7998Z" fill="#00B1D8"/>
</g>
<mask id="mask6_791_289" style="mask-type:luminance" maskUnits="userSpaceOnUse" x="0" y="0" width="590" height="82">
<path d="M589.6 0H0V81.9H589.6V0Z" fill="white"/>
</mask>
<g mask="url(#mask6_791_289)">
<path d="M312.8 59.4998C310.8 61.7998 306 62.8998 298.4 62.8998C294.9 62.8998 292.3 62.6998 290.6 62.2998C288.8 61.8998 287.8 61.4998 287.4 60.9998C287 60.4998 286.8 59.8998 286.8 58.9998L287 57.7998C288.2 51.0998 288.9 41.9998 288.9 30.4998L288.6 16.6998C288.5 14.7998 287.9 12.9998 286.7 11.3998C286 10.6998 285.6 9.9998 285.6 9.1998C285.6 7.3998 287.2 5.6998 290.5 3.8998C293.8 2.1998 296.3 1.2998 298.2 1.2998C300 1.2998 301 2.0998 301 3.5998C300.3 8.9998 299.9 13.8998 299.7 18.3998C299.6 22.8998 299.5 27.8998 299.5 33.6998C299.5 39.3998 299.5 42.8998 299.6 43.9998C299.7 45.1998 299.7 45.7998 299.7 45.8998C299.7 45.9998 299.8 46.1998 299.9 46.4998C300 46.7998 300.2 46.9998 300.5 47.1998C301.1 47.6998 302.1 47.8998 303.5 47.8998C306.5 47.8998 308.9 46.8998 310.6 44.7998C311.5 43.8998 312.3 43.4998 313.2 43.4998C314.9 43.4998 315.7 45.0998 315.7 48.2998C315.8 53.4998 314.8 57.1998 312.8 59.4998Z" fill="#00B1D8"/>
</g>
<mask id="mask7_791_289" style="mask-type:luminance" maskUnits="userSpaceOnUse" x="0" y="0" width="590" height="82">
<path d="M589.6 0H0V81.9H589.6V0Z" fill="white"/>
</mask>
<g mask="url(#mask7_791_289)">
<path d="M346.9 35.5001L346.7 46.8001C346.7 51.3001 347.3 53.9001 348.4 54.6001C349.1 55.1001 349.5 55.8001 349.5 56.7001C349.5 58.3001 348.5 59.7001 346.4 61.1001C344.3 62.5001 342.2 63.1001 340 63.1001C338.9 63.1001 338.1 62.9001 337.6 62.4001C337.1 61.9001 336.8 61.4001 336.8 60.9001C336.8 59.4001 336.6 58.7001 336.2 58.7001C336.1 58.7001 335.8 59.0001 335.2 59.6001C334.6 60.2001 333.7 60.8001 332.4 61.5001C331.2 62.1001 329.6 62.4001 327.8 62.4001C325.9 62.4001 324.3 61.9001 322.9 61.0001C321.5 60.1001 320.5 58.9001 319.9 57.4001C318.9 55.0001 318.4 52.7001 318.4 50.6001C318.4 48.5001 318.7 46.5001 319.4 44.7001C320 42.9001 320.9 41.4001 321.8 40.2001C322.8 39.1001 323.9 38.0001 325.2 37.2001C326.5 36.3001 327.7 35.7001 328.9 35.3001C330 34.9001 331.2 34.6001 332.4 34.3001C334.1 34.0001 335.2 33.8001 335.9 33.8001L336.7 32.7001C336.6 30.9001 335.3 29.9001 332.7 29.9001C330.1 29.9001 327.9 30.4001 326.3 31.4001C325.7 31.8001 325 32.0001 324.4 32.0001C323.1 32.0001 322.5 31.0001 322.5 29.1001C322.5 24.1001 326.5 21.6001 334.5 21.6001C340.7 21.6001 344.5 23.7001 346.1 27.8001C346.5 29.7001 346.9 32.3001 346.9 35.5001ZM329.4 48.4001C329.4 50.7001 330.2 51.8001 331.8 51.8001C333.4 51.8001 334.7 51.0001 335.7 49.3001C336.7 47.6001 337.2 46.1001 337.2 44.8001C337.2 42.4001 336.3 41.1001 334.6 41.1001C333 41.1001 331.8 41.9001 330.8 43.5001C329.9 45.1001 329.4 46.8001 329.4 48.4001Z" fill="#00B1D8"/>
</g>
<mask id="mask8_791_289" style="mask-type:luminance" maskUnits="userSpaceOnUse" x="0" y="0" width="590" height="82">
<path d="M589.6 0H0V81.9H589.6V0Z" fill="white"/>
</mask>
<g mask="url(#mask8_791_289)">
<path d="M353.7 50.1L353.9 37C353.9 35.4 353.8 34.1 353.5 32.9C353.2 31.7 352.8 30.8 352.2 30.1C351.6 29.4 351.3 28.7 351.3 27.9C351.3 26.2 352.7 24.7 355.4 23.2C358.1 21.8 360.2 21 361.6 21C363.1 21 364 21.3 364.6 21.9C365.1 22.5 365.4 23.6 365.4 25.1C365.4 26.7 365.3 29.1 365 32.5C364.7 35.9 364.6 37.9 364.6 38.6C364.6 44.5 365.9 47.4 368.4 47.4C370.2 47.4 371.5 45.5 372.1 41.6C372.4 40.2 372.5 38.6 372.5 36.9C372.5 33.4 372.2 30.9 371.6 29.2C371 28.4 370.7 27.7 370.7 27C370.7 25.4 371.9 24 374.4 22.9C376.8 21.8 379 21.2 380.8 21.2C382.7 21.2 383.6 22.1 383.6 24C383.6 25.9 383.4 28.8 383.1 32.7C382.7 36.6 382.6 39.8 382.6 42.1C382.6 44.4 382.6 46 382.7 47C382.8 47.9 383 49.4 383.6 51.2C384.1 53.1 384.8 54.3 385.7 54.8C386.6 55.2 387.1 55.8 387.1 56.5C387.1 57.2 386.9 57.9 386.5 58.5C384.5 61.3 381.3 62.6 377 62.6C374.6 62.4 373.2 61.5 372.9 59.8L372.3 57C372.2 56.6 372.1 56.4 371.8 56.4L371.2 56.7C369.3 60.4 366.3 62.2 362.3 62.2C356.5 62.6 353.7 58.4 353.7 50.1Z" fill="#00B1D8"/>
</g>
<mask id="mask9_791_289" style="mask-type:luminance" maskUnits="userSpaceOnUse" x="0" y="0" width="590" height="82">
<path d="M589.6 0H0V81.9H589.6V0Z" fill="white"/>
</mask>
<g mask="url(#mask9_791_289)">
<path d="M403.1 40.9001L402.9 47.0001C402.9 48.6001 403 50.8001 403.1 53.6001L403.3 57.7001C403.3 59.5001 402.7 60.8001 401.4 61.7001C399.4 63.1001 396.8 63.8001 393.7 63.8001C391.5 63.8001 390.4 62.9001 390.4 61.0001L390.6 59.7001C392 53.4001 392.6 48.0001 392.7 43.6001C392.7 39.2001 392.6 36.3001 392.3 34.8001C392 33.3001 391.4 32.1001 390.5 31.1001C389.6 30.1001 389.1 29.3001 389.1 28.6001C389.1 26.8001 390.5 25.1001 393.3 23.5001C396.1 21.9001 398.3 21.1001 400 21.1001C401.6 21.1001 402.6 22.0001 402.8 23.8001C402.9 26.2001 403.2 27.4001 403.7 27.4001C403.9 27.4001 404.1 27.3001 404.3 27.2001C404.5 26.8001 404.9 26.4001 405.3 25.8001C405.8 25.3001 406.8 24.5001 408.3 23.7001C409.8 22.8001 411.6 22.4001 413.6 22.4001C415.6 22.4001 417.3 23.2001 418.5 24.8001C419.8 26.4001 420.6 28.3001 420.9 30.6001C421 31.5001 421.1 33.0001 421.1 35.1001L420.8 47.1001C420.8 50.8001 421.6 53.3001 423.3 54.6001C424.3 55.1001 424.8 55.7001 424.8 56.4001C424.8 57.1001 424.6 57.8001 424.2 58.4001C422.1 61.3001 418.8 62.8001 414.1 62.8001C411.9 62.7001 410.6 61.9001 410.2 60.1001C410 59.3001 410 58.2001 410 56.6001C410 55.0001 410.1 52.5001 410.4 49.1001C410.7 45.7001 410.8 43.1001 410.8 41.5001C410.8 36.7001 409.7 34.3001 407.6 34.3001C406.2 34.3001 405.1 35.1001 404.3 36.6001C403.5 38.1001 403.1 39.4001 403.1 40.9001Z" fill="#00B1D8"/>
</g>
<mask id="mask10_791_289" style="mask-type:luminance" maskUnits="userSpaceOnUse" x="0" y="0" width="590" height="82">
<path d="M589.6 0H0V81.9H589.6V0Z" fill="white"/>
</mask>
<g mask="url(#mask10_791_289)">
<path d="M457.9 44.5001L458 46.4001V46.7001C458 49.6001 458.9 51.6001 460.6 52.8001C461.4 53.4001 461.8 54.2001 461.8 54.9001C461.8 55.6001 461.6 56.3001 461.2 56.8001C460 58.5001 458.5 59.9001 456.7 60.9001C454.3 62.3001 452.2 63.0001 450.5 63.0001C448.7 63.0001 447.7 62.1001 447.6 60.4001C447.5 59.0001 447.2 58.4001 446.8 58.4001L446.2 58.7001C444.4 61.2001 441.9 62.5001 438.9 62.5001C436.7 62.5001 434.8 61.9001 433.2 60.8001C431.6 59.7001 430.4 58.1001 429.6 56.2001C428 52.5001 427.2 48.4001 427.2 43.8001C427.2 38.9001 428.4 34.1001 430.9 29.6001C432.1 27.4001 433.8 25.7001 435.9 24.3001C438 22.9001 440.3 22.2001 442.9 22.2001C444.1 22.2001 445.1 22.4001 445.8 22.7001L446.9 23.2001C447.3 23.2001 447.5 22.8001 447.6 21.9001C447.7 21.0001 447.7 19.9001 447.7 18.5001C447.7 17.1001 447.6 16.0001 447.5 15.1001C447.4 14.2001 447.3 13.5001 447.1 13.1001C446.9 12.7001 446.7 12.3001 446.5 12.0001C446.2 11.6001 445.6 11.1001 444.9 10.6001C444.2 10.1001 443.8 9.4001 443.8 8.6001C443.8 6.8001 445.3 5.1001 448.4 3.5001C451.5 1.9001 454 1.1001 456 1.1001C457.5 1.1001 458.4 1.8001 458.5 3.1001C458.6 3.6001 458.7 4.7001 458.7 6.3001C458.7 7.9001 458.5 11.2001 458.2 16.2001C457.8 21.2001 457.7 25.9001 457.7 30.5001V38.6001L457.8 42.7001V44.5001H457.9ZM441.1 48.3001C443.1 48.3001 444.7 47.2001 445.9 44.9001C447.1 42.6001 447.7 40.6001 447.7 38.8001C447.7 34.6001 446.5 32.5001 444.2 32.5001C442.3 32.5001 440.7 33.7001 439.5 36.1001C438.2 38.5001 437.6 40.8001 437.6 43.0001C437.6 46.3001 438.7 48.1001 441.1 48.3001Z" fill="#00B1D8"/>
</g>
<mask id="mask11_791_289" style="mask-type:luminance" maskUnits="userSpaceOnUse" x="0" y="0" width="590" height="82">
<path d="M589.6 0H0V81.9H589.6V0Z" fill="white"/>
</mask>
<g mask="url(#mask11_791_289)">
<path d="M477.5 55.2998L477.7 57.2998C477.7 59.0998 477.1 60.3998 475.8 61.2998C473.7 62.7998 471 63.4998 467.8 63.4998C465.7 63.4998 464.7 62.5998 464.7 60.7998L464.9 59.3998C466.2 52.9998 466.8 45.1998 466.8 35.9998C466.8 33.1998 466 31.1998 464.3 29.9998C463.7 29.5998 463.4 28.9998 463.4 28.0998C463.4 26.3998 464.7 24.7998 467.4 23.1998C470.1 21.5998 472.2 20.7998 473.9 20.7998C475.5 20.7998 476.4 21.6998 476.7 23.4998C476.9 24.6998 477 25.6998 477 26.2998C477 26.8998 477.2 27.1998 477.6 27.1998C477.9 27.1998 478.1 27.0998 478.2 26.7998C478.3 26.5998 478.5 26.2998 478.6 26.0998C478.7 25.8998 479 25.3998 479.5 24.7998C480 24.1998 480.5 23.6998 481 23.1998C482.4 21.9998 484 21.2998 485.7 21.2998C486.8 21.2998 488 21.6998 489.1 22.3998C491.2 23.6998 492.3 26.2998 492.3 30.0998C492.3 32.4998 491.8 34.5998 490.8 36.3998C489.8 38.1998 488.3 39.0998 486.1 39.0998C483.4 39.0998 482 37.5998 482 34.5998L482.1 33.3998C482.1 32.4998 481.7 31.9998 481 31.9998C478.1 31.9998 476.7 36.0998 476.7 44.3998C476.8 46.6998 477.1 50.2998 477.5 55.2998Z" fill="#00B1D8"/>
</g>
<mask id="mask12_791_289" style="mask-type:luminance" maskUnits="userSpaceOnUse" x="0" y="0" width="590" height="82">
<path d="M589.6 0H0V81.9H589.6V0Z" fill="white"/>
</mask>
<g mask="url(#mask12_791_289)">
<path d="M497.4 50.0002L497.6 36.5002C497.6 34.0002 497.2 32.0002 496.3 30.7002C495.5 29.3002 495 28.4002 495 27.9002C495 26.3002 496.4 24.8002 499.3 23.4002C502.2 21.9002 504.4 21.2002 505.9 21.2002C508 21.2002 509 22.5002 509 25.2002C509 27.1002 508.9 29.5002 508.6 32.1002C508.3 34.8002 508.2 37.3002 508.2 39.5002C508.2 44.4002 509.3 46.8002 511.5 46.8002H511.8C514.5 46.8002 515.9 42.9002 515.9 35.1002C515.9 32.9002 515.6 31.0002 514.9 29.5002C514.3 28.7002 514 28.0002 514 27.3002C514 25.7002 515.3 24.4002 517.8 23.2002C520.3 22.1002 522.6 21.5002 524.5 21.5002C526.4 21.5002 527.3 22.4002 527.3 24.3002C527.3 26.2002 527.2 28.2002 526.9 30.1002C526.4 34.3002 526.2 39.3002 526.2 45.0002L526.4 55.1002C526.4 61.0002 526 65.6002 525.2 69.1002C524.4 72.5002 522.7 75.5002 520 78.1002C517.3 80.7002 514.1 82.0002 510.3 82.0002C508.1 82.0002 506.1 81.4002 504.5 80.1002C502.8 78.9002 502 77.1002 502 74.8002C502 73.5002 502.4 72.5002 503.1 71.7002C503.8 70.9002 504.6 70.5002 505.3 70.4002L506.4 70.2002C509.5 70.1002 511.8 68.9002 513.2 66.5002C514.6 64.1002 515.3 60.9002 515.3 57.0002C515.3 56.1002 515.2 55.6002 514.9 55.6002L514.2 55.9002C512.2 59.6002 509.3 61.4002 505.6 61.4002C500.2 61.5002 497.4 57.7002 497.4 50.0002Z" fill="#00B1D8"/>
</g>
<mask id="mask13_791_289" style="mask-type:luminance" maskUnits="userSpaceOnUse" x="0" y="0" width="590" height="82">
<path d="M589.6 0H0V81.9H589.6V0Z" fill="white"/>
</mask>
<g mask="url(#mask13_791_289)">
<path d="M222.5 14.7998C222.8 15.2998 223.2 15.7998 223.6 16.1998C222.9 16.2998 222.2 16.4998 221.6 16.7998C220.2 17.3998 219 19.0998 220.2 20.4998C221.2 21.6998 223.4 21.5998 224.7 20.9998C225 20.8998 225.2 20.7998 225.5 20.5998C225.5 20.7998 225.6 20.9998 225.6 21.1998C226 22.5998 227 24.3998 228.8 23.6998C230.1 23.1998 230.6 21.7998 230.4 20.4998C230.3 19.9998 230.1 19.5998 229.9 19.1998C230.5 19.2998 231 19.2998 231.6 19.1998C233 18.8998 234.1 17.7998 234.2 16.3998C234.2 15.6998 233.9 14.9998 233.4 14.4998C232.7 13.8998 231.9 13.9998 231.2 14.2998C230.1 14.6998 229 15.1998 227.9 15.6998C228.1 14.5998 228 13.3998 227.3 12.3998C226.5 11.1998 224.9 10.2998 223.4 10.6998C222.6 10.8998 221.8 11.5998 221.8 12.3998C221.7 13.1998 222.1 14.0998 222.5 14.7998Z" fill="#F0B61B"/>
</g>
<mask id="mask14_791_289" style="mask-type:luminance" maskUnits="userSpaceOnUse" x="0" y="0" width="590" height="82">
<path d="M589.6 0H0V81.9H589.6V0Z" fill="white"/>
</mask>
<g mask="url(#mask14_791_289)">
<path d="M225.8 17.8001C226 18.3001 226.6 18.5001 227 18.4001C227.5 18.2001 227.7 17.7001 227.5 17.2001C227.4 17.0001 227.2 16.8001 227 16.7001C226.9 16.7001 226.9 16.7001 226.8 16.6001C226.6 16.6001 226.4 16.6001 226.2 16.6001C226 16.7001 225.8 16.9001 225.7 17.1001C225.8 17.4001 225.7 17.6001 225.8 17.8001Z" fill="#EE7623"/>
</g>
<mask id="mask15_791_289" style="mask-type:luminance" maskUnits="userSpaceOnUse" x="0" y="0" width="590" height="82">
<path d="M589.6 0H0V81.9H589.6V0Z" fill="white"/>
</mask>
<g mask="url(#mask15_791_289)">
<path d="M565.2 38.5001C565.2 38.5001 554.8 10.2001 571.9 14.8001C590.6 19.9001 565.2 38.5001 565.2 38.5001Z" fill="#F09E1F"/>
</g>
<mask id="mask16_791_289" style="mask-type:luminance" maskUnits="userSpaceOnUse" x="0" y="0" width="590" height="82">
<path d="M589.6 0H0V81.9H589.6V0Z" fill="white"/>
</mask>
<g mask="url(#mask16_791_289)">
<path d="M565.2 38.4998C565.2 38.4998 535.5 33.2998 548 20.8998C561.8 7.09982 565.2 38.4998 565.2 38.4998Z" fill="#F09E1F"/>
</g>
<mask id="mask17_791_289" style="mask-type:luminance" maskUnits="userSpaceOnUse" x="0" y="0" width="590" height="82">
<path d="M589.6 0H0V81.9H589.6V0Z" fill="white"/>
</mask>
<g mask="url(#mask17_791_289)">
<path d="M565.2 38.4998C565.2 38.4998 545.9 61.5998 541.4 44.5998C536.4 25.6998 565.2 38.4998 565.2 38.4998Z" fill="#F09E1F"/>
</g>
<mask id="mask18_791_289" style="mask-type:luminance" maskUnits="userSpaceOnUse" x="0" y="0" width="590" height="82">
<path d="M589.6 0H0V81.9H589.6V0Z" fill="white"/>
</mask>
<g mask="url(#mask18_791_289)">
<path d="M565.2 38.5C565.2 38.5 575.6 66.8 558.5 62.2C539.7 57 565.2 38.5 565.2 38.5Z" fill="#F09E1F"/>
</g>
<mask id="mask19_791_289" style="mask-type:luminance" maskUnits="userSpaceOnUse" x="0" y="0" width="590" height="82">
<path d="M589.6 0H0V81.9H589.6V0Z" fill="white"/>
</mask>
<g mask="url(#mask19_791_289)">
<path d="M565.2 38.5C565.2 38.5 594.9 43.7 582.4 56.1C568.5 69.8 565.2 38.5 565.2 38.5Z" fill="#F09E1F"/>
</g>
<mask id="mask20_791_289" style="mask-type:luminance" maskUnits="userSpaceOnUse" x="0" y="0" width="590" height="82">
<path d="M589.6 0H0V81.9H589.6V0Z" fill="white"/>
</mask>
<g mask="url(#mask20_791_289)">
<path d="M565.2 38.4999C565.2 38.4999 584.5 15.3999 589 32.3999C594 51.1999 565.2 38.4999 565.2 38.4999Z" fill="#F09E1F"/>
</g>
<mask id="mask21_791_289" style="mask-type:luminance" maskUnits="userSpaceOnUse" x="0" y="0" width="590" height="82">
<path d="M589.6 0H0V81.9H589.6V0Z" fill="white"/>
</mask>
<g mask="url(#mask21_791_289)">
<path d="M565.2 38.5001C565.2 38.5001 557.3 16.8001 570.3 20.4001C584.6 24.2001 565.2 38.5001 565.2 38.5001Z" fill="#F0B61B"/>
</g>
<mask id="mask22_791_289" style="mask-type:luminance" maskUnits="userSpaceOnUse" x="0" y="0" width="590" height="82">
<path d="M589.6 0H0V81.9H589.6V0Z" fill="white"/>
</mask>
<g mask="url(#mask22_791_289)">
<path d="M565.2 38.5001C565.2 38.5001 542.5 34.6001 552.1 25.0001C562.6 14.5001 565.2 38.5001 565.2 38.5001Z" fill="#F0B61B"/>
</g>
<mask id="mask23_791_289" style="mask-type:luminance" maskUnits="userSpaceOnUse" x="0" y="0" width="590" height="82">
<path d="M589.6 0H0V81.9H589.6V0Z" fill="white"/>
</mask>
<g mask="url(#mask23_791_289)">
<path d="M565.2 38.4999C565.2 38.4999 550.4 56.1999 546.9 43.0999C543.1 28.6999 565.2 38.4999 565.2 38.4999Z" fill="#F0B61B"/>
</g>
<mask id="mask24_791_289" style="mask-type:luminance" maskUnits="userSpaceOnUse" x="0" y="0" width="590" height="82">
<path d="M589.6 0H0V81.9H589.6V0Z" fill="white"/>
</mask>
<g mask="url(#mask24_791_289)">
<path d="M565.2 38.5C565.2 38.5 573.1 60.2 560.1 56.6C545.7 52.7 565.2 38.5 565.2 38.5Z" fill="#F0B61B"/>
</g>
<mask id="mask25_791_289" style="mask-type:luminance" maskUnits="userSpaceOnUse" x="0" y="0" width="590" height="82">
<path d="M589.6 0H0V81.9H589.6V0Z" fill="white"/>
</mask>
<g mask="url(#mask25_791_289)">
<path d="M565.2 38.5C565.2 38.5 587.9 42.5 578.3 52C567.7 62.5 565.2 38.5 565.2 38.5Z" fill="#F0B61B"/>
</g>
<mask id="mask26_791_289" style="mask-type:luminance" maskUnits="userSpaceOnUse" x="0" y="0" width="590" height="82">
<path d="M589.6 0H0V81.9H589.6V0Z" fill="white"/>
</mask>
<g mask="url(#mask26_791_289)">
<path d="M565.2 38.5C565.2 38.5 580 20.8 583.5 33.9C587.2 48.2 565.2 38.5 565.2 38.5Z" fill="#F0B61B"/>
</g>
<mask id="mask27_791_289" style="mask-type:luminance" maskUnits="userSpaceOnUse" x="0" y="0" width="590" height="82">
<path d="M589.6 0H0V81.9H589.6V0Z" fill="white"/>
</mask>
<g mask="url(#mask27_791_289)">
<path d="M572.5 40.4998C573.6 36.3998 571.3 32.1998 567.2 31.0998C563.1 29.9998 558.9 32.2998 557.8 36.3998C556.7 40.4998 559 44.6998 563.1 45.7998C567.1 46.9998 571.4 44.5998 572.5 40.4998Z" fill="#F07622"/>
</g>
<mask id="mask28_791_289" style="mask-type:luminance" maskUnits="userSpaceOnUse" x="0" y="0" width="590" height="82">
<path d="M589.6 0H0V81.9H589.6V0Z" fill="white"/>
</mask>
<g mask="url(#mask28_791_289)">
<path d="M8.29996 14.6001C8.29996 14.6001 9.39996 24.8001 4.19996 21.9001C-1.50004 18.7001 8.29996 14.6001 8.29996 14.6001Z" fill="#F0B61B"/>
</g>
<mask id="mask29_791_289" style="mask-type:luminance" maskUnits="userSpaceOnUse" x="0" y="0" width="590" height="82">
<path d="M589.6 0H0V81.9H589.6V0Z" fill="white"/>
</mask>
<g mask="url(#mask29_791_289)">
<path d="M8.29996 14.6001C8.29996 14.6001 17.7 18.7001 12.5 21.8001C6.89996 25.2001 8.29996 14.6001 8.29996 14.6001Z" fill="#F0B61B"/>
</g>
<mask id="mask30_791_289" style="mask-type:luminance" maskUnits="userSpaceOnUse" x="0" y="0" width="590" height="82">
<path d="M589.6 0H0V81.9H589.6V0Z" fill="white"/>
</mask>
<g mask="url(#mask30_791_289)">
<path d="M8.30005 14.5999C8.30005 14.5999 16.5 8.49987 16.6 14.4999C16.8 21.0999 8.30005 14.5999 8.30005 14.5999Z" fill="#F0B61B"/>
</g>
<mask id="mask31_791_289" style="mask-type:luminance" maskUnits="userSpaceOnUse" x="0" y="0" width="590" height="82">
<path d="M589.6 0H0V81.9H589.6V0Z" fill="white"/>
</mask>
<g mask="url(#mask31_791_289)">
<path d="M8.29998 14.6002C8.29998 14.6002 7.19998 4.4002 12.4 7.3002C18.2 10.5002 8.29998 14.6002 8.29998 14.6002Z" fill="#F0B61B"/>
</g>
<mask id="mask32_791_289" style="mask-type:luminance" maskUnits="userSpaceOnUse" x="0" y="0" width="590" height="82">
<path d="M589.6 0H0V81.9H589.6V0Z" fill="white"/>
</mask>
<g mask="url(#mask32_791_289)">
<path d="M8.30005 14.5999C8.30005 14.5999 -1.09995 10.4999 4.10005 7.39994C9.80005 3.99994 8.30005 14.5999 8.30005 14.5999Z" fill="#F0B61B"/>
</g>
<mask id="mask33_791_289" style="mask-type:luminance" maskUnits="userSpaceOnUse" x="0" y="0" width="590" height="82">
<path d="M589.6 0H0V81.9H589.6V0Z" fill="white"/>
</mask>
<g mask="url(#mask33_791_289)">
<path d="M8.30003 14.6002C8.30003 14.6002 0.100031 20.7002 3.13311e-05 14.7002C-0.0999687 8.10021 8.30003 14.6002 8.30003 14.6002Z" fill="#F0B61B"/>
</g>
<mask id="mask34_791_289" style="mask-type:luminance" maskUnits="userSpaceOnUse" x="0" y="0" width="590" height="82">
<path d="M589.6 0H0V81.9H589.6V0Z" fill="white"/>
</mask>
<g mask="url(#mask34_791_289)">
<path d="M5.40004 12.8998C4.50004 14.4998 5.00004 16.5998 6.70004 17.4998C8.30004 18.3998 10.4 17.7998 11.3 16.1998C12.2 14.5998 11.7 12.4998 10 11.5998C8.40004 10.6998 6.30004 11.2998 5.40004 12.8998Z" fill="#F07622"/>
</g>
<mask id="mask35_791_289" style="mask-type:luminance" maskUnits="userSpaceOnUse" x="0" y="0" width="590" height="82">
<path d="M589.6 0H0V81.9H589.6V0Z" fill="white"/>
</mask>
<g mask="url(#mask35_791_289)">
<path d="M19.7 45.7998C19.7 45.7998 21.5 61.7998 13.2 57.2998C4.09999 52.1998 19.7 45.7998 19.7 45.7998Z" fill="#F0B61B"/>
</g>
<mask id="mask36_791_289" style="mask-type:luminance" maskUnits="userSpaceOnUse" x="0" y="0" width="590" height="82">
<path d="M589.6 0H0V81.9H589.6V0Z" fill="white"/>
</mask>
<g mask="url(#mask36_791_289)">
<path d="M19.7 45.7998C19.7 45.7998 34.5 52.2998 26.4 57.1998C17.4 62.4998 19.7 45.7998 19.7 45.7998Z" fill="#F0B61B"/>
</g>
<mask id="mask37_791_289" style="mask-type:luminance" maskUnits="userSpaceOnUse" x="0" y="0" width="590" height="82">
<path d="M589.6 0H0V81.9H589.6V0Z" fill="white"/>
</mask>
<g mask="url(#mask37_791_289)">
<path d="M19.7 45.7999C19.7 45.7999 32.7 36.1999 32.9 45.6999C33 56.0999 19.7 45.7999 19.7 45.7999Z" fill="#F0B61B"/>
</g>
<mask id="mask38_791_289" style="mask-type:luminance" maskUnits="userSpaceOnUse" x="0" y="0" width="590" height="82">
<path d="M589.6 0H0V81.9H589.6V0Z" fill="white"/>
</mask>
<g mask="url(#mask38_791_289)">
<path d="M19.7 45.7999C19.7 45.7999 17.9 29.7999 26.2 34.2999C35.3 39.2999 19.7 45.7999 19.7 45.7999Z" fill="#F0B61B"/>
</g>
<mask id="mask39_791_289" style="mask-type:luminance" maskUnits="userSpaceOnUse" x="0" y="0" width="590" height="82">
<path d="M589.6 0H0V81.9H589.6V0Z" fill="white"/>
</mask>
<g mask="url(#mask39_791_289)">
<path d="M19.7 45.7999C19.7 45.7999 4.9 39.2999 13 34.3999C21.9 28.9999 19.7 45.7999 19.7 45.7999Z" fill="#F0B61B"/>
</g>
<mask id="mask40_791_289" style="mask-type:luminance" maskUnits="userSpaceOnUse" x="0" y="0" width="590" height="82">
<path d="M589.6 0H0V81.9H589.6V0Z" fill="white"/>
</mask>
<g mask="url(#mask40_791_289)">
<path d="M19.7 45.7998C19.7 45.7998 6.70002 55.3998 6.50002 45.8998C6.30002 35.3998 19.7 45.7998 19.7 45.7998Z" fill="#F0B61B"/>
</g>
<mask id="mask41_791_289" style="mask-type:luminance" maskUnits="userSpaceOnUse" x="0" y="0" width="590" height="82">
<path d="M589.6 0H0V81.9H589.6V0Z" fill="white"/>
</mask>
<g mask="url(#mask41_791_289)">
<path d="M15 43.1001C13.5 45.7001 14.4 48.9001 17 50.4001C19.6 51.9001 22.8 51.0001 24.3 48.4001C25.8 45.8001 24.9 42.6001 22.3 41.1001C19.7 39.6001 16.5 40.5001 15 43.1001Z" fill="#F07622"/>
</g>
</g>
<defs>
<clipPath id="clip0_791_289">
<rect width="589.6" height="81.9" fill="white"/>
</clipPath>
</defs>
</svg>
