<svg width="707" height="228" viewBox="0 0 707 228" fill="none" xmlns="http://www.w3.org/2000/svg">
<g clip-path="url(#clip0_677_839)">
<path d="M706.814 13.3048V100.914C685.417 92.7388 662.447 87.8071 638.108 87.8071C583.446 87.8071 550.943 134.618 534.737 172.377C522.591 200.627 518.146 233.19 495.819 257.691C488.701 265.5 478.609 272.186 466.241 271.081C450.107 269.627 437.217 257.487 427.978 247.312C413.562 231.406 403.993 212.262 380.524 204.279C369.238 200.429 356.936 199.083 344.766 198.825C325.58 198.398 305.83 200.699 289.113 208.592C259.079 222.774 231.676 260.34 191.418 247.924C185.65 246.095 180.198 243.388 175.254 239.899C133.837 211.211 107.81 170.875 68.6936 140.475C48.3125 124.641 25.3065 110.501 0.0839844 100.866V13.2869C25.3125 22.8978 48.3125 37.0558 68.6936 52.8897C107.81 83.2901 133.837 123.626 175.254 152.314C180.202 155.823 185.662 158.544 191.443 160.381C231.688 172.797 259.121 135.231 289.137 121.049C305.854 113.156 325.604 110.837 344.79 111.282C356.96 111.558 369.262 112.886 380.548 116.736C403.975 124.719 413.532 143.863 428.002 159.769C437.241 169.944 450.131 182.084 466.265 183.538C478.633 184.649 488.725 177.975 495.843 170.148C518.17 145.629 522.621 113.084 534.761 84.7857C550.979 47.027 583.476 0.216064 638.132 0.216064C662.471 0.216064 685.441 5.14762 706.838 13.3289" fill="#F29F05"/>
<path d="M706.814 76.6047V402.455C691.502 394.286 678.281 381.179 663.3 371.875C638.138 356.257 605.034 351.374 575.469 358.221C544.107 365.496 533.554 385.739 515.119 407.477C505.892 418.373 492.984 431.36 476.855 432.916C464.487 434.117 454.396 426.963 447.278 418.59C424.951 392.346 420.5 357.501 408.36 327.238C392.141 286.831 359.645 236.734 304.989 236.734C251.973 236.734 205.33 261.836 167.674 293.15C128.557 325.683 102.53 368.835 61.1129 399.548C39.6326 415.466 19.0654 412.066 0.10791 402.245V76.6047C25.3365 86.9064 48.3365 102.038 68.7176 118.989C107.834 151.521 133.861 194.674 175.278 225.381C180.171 229.092 185.629 231.992 191.442 233.971C231.688 247.258 259.121 207.054 289.137 191.881C305.854 183.436 325.604 180.973 344.79 181.429C356.96 181.706 369.262 183.141 380.548 187.262C403.975 195.81 413.532 216.293 428.002 233.316C437.241 244.206 450.131 257.199 466.265 258.749C478.633 259.95 488.725 252.796 495.843 244.429C518.17 218.185 522.621 183.333 534.761 153.071C550.979 112.67 583.476 62.5728 638.132 62.5728C662.471 62.5728 685.441 67.8468 706.838 76.6047" fill="#F27507"/>
</g>
<defs>
<clipPath id="clip0_677_839">
<rect width="707" height="228.258" fill="white"/>
</clipPath>
</defs>
</svg>
