<svg width="69" height="65" viewBox="0 0 69 65" fill="none" xmlns="http://www.w3.org/2000/svg">
<g clip-path="url(#clip0_552_1293)">
<path d="M34.499 32.5C34.499 32.5 39.199 74.5 17.499 62.5C-6.40095 49.3 34.499 32.5 34.499 32.5Z" fill="#F0B61B"/>
<path d="M34.5009 32.5C34.5009 32.5 73.2009 49.4 52.0009 62.2C28.6009 76.3 34.5009 32.5 34.5009 32.5Z" fill="#F0B61B"/>
<path d="M34.5 32.5C34.5 32.5 68.5 7.40001 69 32.2C69.5 59.5 34.5 32.5 34.5 32.5Z" fill="#F0B61B"/>
<path d="M34.4997 32.5C34.4997 32.5 29.7997 -9.5 51.4997 2.5C75.3997 15.7 34.4997 32.5 34.4997 32.5Z" fill="#F0B61B"/>
<path d="M34.4996 32.5C34.4996 32.5 -4.20037 15.6 16.9996 2.79999C40.3996 -11.3 34.4996 32.5 34.4996 32.5Z" fill="#F0B61B"/>
<path d="M34.4994 32.5C34.4994 32.5 0.499447 57.6 -0.000552801 32.8C-0.500553 5.50001 34.4994 32.5 34.4994 32.5Z" fill="#F0B61B"/>
<path d="M22.2999 25.6C18.4999 32.3 20.8999 40.9 27.5999 44.7C34.2999 48.5 42.8999 46.1 46.6999 39.4C50.4999 32.7 48.0999 24.1 41.3999 20.3C34.6999 16.5 26.0999 18.9 22.2999 25.6Z" fill="#F07622"/>
</g>
<defs>
<clipPath id="clip0_552_1293">
<rect width="69" height="65" fill="white"/>
</clipPath>
</defs>
</svg>
