<svg width="228" height="228" viewBox="0 0 228 228" fill="none" xmlns="http://www.w3.org/2000/svg">
<g clip-path="url(#clip0_791_80)">
<mask id="mask0_791_80" style="mask-type:luminance" maskUnits="userSpaceOnUse" x="0" y="0" width="228" height="228">
<path d="M113.5 0C50.9447 0.200264 0.200176 50.967 0 113.549V114.451C0.200176 177.233 51.1449 228 114 228C176.755 228 227.6 177.333 228 114.651V113.349C227.7 50.8669 176.955 0.200264 114.5 0H113.5Z" fill="white"/>
</mask>
<g mask="url(#mask0_791_80)">
<path d="M230 -2H-2V230H230V-2Z" fill="#ECF0F3"/>
<path d="M102.307 75.4134L98 62.6047C98 62.6047 105.929 57.7159 113.27 61.3336C120.611 65.0491 110.823 76 110.823 76L102.307 75.4134Z" stroke="black" strokeWidth="4" strokeMiterlimit="10"/>
<path d="M84.1788 90.2179C84.1788 90.2179 96.1326 75.156 103.666 73.2482C111.2 71.3404 116.223 80.7791 120.04 89.6154C123.857 98.4517 128.177 105.983 140.13 111.003C152.084 116.024 164.038 141.127 154.595 157.494C148.769 167.536 115.017 168.841 101.858 165.025C88.6991 161.21 66.7003 152.474 70.417 141.127C74.1337 129.68 84.1788 90.2179 84.1788 90.2179Z" stroke="black" strokeWidth="4" strokeMiterlimit="10"/>
</g>
<mask id="mask1_791_80" style="mask-type:luminance" maskUnits="userSpaceOnUse" x="76" y="87" width="72" height="71">
<path d="M103.937 87C103.535 87 103.033 87.0997 102.532 87.1995C96.7089 88.6953 88.4768 101.161 88.4768 101.161C88.4768 101.161 79.2408 129.483 76.3295 138.159C73.4181 146.835 90.4846 153.616 100.624 156.508C110.864 159.4 141.082 158.403 145.599 150.724C152.928 138.159 142.286 123 129.737 117.416C120.602 113.327 115.382 106.646 112.47 99.8645C109.76 93.5818 108.555 87 103.937 87Z" fill="white"/>
</mask>
<g mask="url(#mask1_791_80)">
<path d="M155 83H72V161H155V83Z" fill="#F27507"/>
</g>
</g>
<defs>
<clipPath id="clip0_791_80">
<rect width="228" height="228" fill="white"/>
</clipPath>
</defs>
</svg>
