<svg width="111" height="111" viewBox="0 0 111 111" fill="none" xmlns="http://www.w3.org/2000/svg">
<mask id="mask0_562_1457" style="mask-type:luminance" maskUnits="userSpaceOnUse" x="0" y="0" width="111" height="111">
<path d="M111 0.320068H0.700195V110.62H111V0.320068Z" fill="white"/>
</mask>
<g mask="url(#mask0_562_1457)">
<g opacity="0.2">
<mask id="mask1_562_1457" style="mask-type:luminance" maskUnits="userSpaceOnUse" x="0" y="0" width="111" height="111">
<path d="M111 0.320068H0.700195V110.62H111V0.320068Z" fill="white"/>
</mask>
<g mask="url(#mask1_562_1457)">
<mask id="mask2_562_1457" style="mask-type:luminance" maskUnits="userSpaceOnUse" x="0" y="0" width="111" height="111">
<path d="M111 0.320068H0.700195V110.62H111V0.320068Z" fill="white"/>
</mask>
<g mask="url(#mask2_562_1457)">
<path d="M111 55.4601C111.002 66.3681 107.769 77.0318 101.711 86.1025C95.6518 95.1732 87.0393 102.243 76.9621 106.419C66.8849 110.595 55.7958 111.688 45.0971 109.562C34.3984 107.435 24.5707 102.183 16.8568 94.4706C9.14297 86.7581 3.88943 76.9313 1.76065 66.233C-0.36814 55.5346 0.723424 44.4453 4.8973 34.3674C9.07118 24.2894 16.1399 15.6756 25.2095 9.6152C34.2791 3.5548 44.9421 0.320069 55.8502 0.320068C70.4751 0.320068 84.5012 6.12911 94.8436 16.4696C105.186 26.81 110.998 40.8351 111 55.4601Z" fill="#0085C4"/>
</g>
</g>
</g>
<path d="M66.3502 46.3801H26.7603V69.3901H66.3502V46.3801Z" fill="#0085C4"/>
<path d="M65.0001 68.0001H28.1501V47.7701H65.0001V68.0001ZM67.7802 45.0001H25.3701V70.8H67.7401L67.7802 45.0001Z" fill="white"/>
<path d="M67.7401 44.9901H25.3701V70.7801H67.7401V44.9901Z" stroke="black" strokeWidth="1.85" stroke-linecap="round" stroke-linejoin="round"/>
<path d="M23.77 43.3701L26.6 33.3801H66.52L69.34 43.3701H23.77Z" fill="#0085C4"/>
<path d="M65.2903 35.0001L67.2004 41.7501H25.9103L27.8204 35.0001H65.2903ZM67.7404 31.7601H25.3704L21.6304 45.0001H71.4904L67.7404 31.7601Z" fill="white"/>
<path d="M71.4904 44.9901H21.6304L25.3704 31.7501H67.7404L71.4904 44.9901Z" stroke="black" strokeWidth="1.85" stroke-linecap="round" stroke-linejoin="round"/>
<path d="M61.1403 51.4101H50.2202V70.7901H61.1403V51.4101Z" fill="white"/>
<path d="M61.1403 51.4101H50.2202V70.7901H61.1403V51.4101Z" stroke="black" strokeWidth="1.85" stroke-linecap="round" stroke-linejoin="round"/>
<path d="M42.1703 51.5101H32.3804V61.5201H42.1703V51.5101Z" fill="white"/>
<path d="M42.1703 51.5101H32.3804V61.5201H42.1703V51.5101Z" stroke="black" strokeWidth="1.85" stroke-linecap="round" stroke-linejoin="round"/>
<path d="M37.27 52.05V60.9901" stroke="black" strokeWidth="1.85" stroke-linecap="round" stroke-linejoin="round"/>
<path d="M41.7403 56.5201H32.8003" stroke="black" strokeWidth="1.85" stroke-linecap="round" stroke-linejoin="round"/>
<path d="M67.8701 74.3801C64.5991 74.4012 61.3298 74.2243 58.0801 73.8501C57.9654 71.2875 57.9854 68.7206 58.1401 66.1601L58.2001 64.5601C58.4301 58.1201 58.6701 57.5601 61.4101 57.3401C63.2501 57.1901 67.2701 57.0901 72.1701 57.0901C77.2601 57.0901 81.9901 57.2 82.9401 57.33C83.6401 57.52 85.2901 59.9901 86.4101 62.5101C86.4984 62.7162 86.6357 62.8976 86.8099 63.0388C86.9842 63.1799 87.1902 63.2765 87.4101 63.3201C89.41 63.9675 91.3189 64.8681 93.0902 66.0001C93.6902 67.2301 94.0901 72.6501 93.6201 74.3801H67.8701Z" fill="#EA5B2C"/>
<path d="M72.1702 58.4801C77.2202 58.4801 81.1702 58.5801 82.4502 58.6801C83.567 59.9966 84.4743 61.4773 85.1402 63.0701C85.3224 63.4897 85.6061 63.8574 85.9656 64.1402C86.3252 64.4229 86.7495 64.6119 87.2002 64.6901C88.8669 65.249 90.464 65.9973 91.9602 66.9201C92.3612 68.917 92.519 70.9552 92.4302 72.9901H67.8702C64.9402 72.9901 61.4302 72.8301 59.4202 72.6201C59.4202 71.4701 59.4202 69.5501 59.5302 66.2201C59.5302 65.6601 59.5302 65.12 59.5902 64.61C59.5364 62.7981 59.7144 60.9868 60.1202 59.2201C60.2002 59.0501 60.2902 58.8301 61.5302 58.7301C63.3302 58.5801 67.3102 58.4801 72.1702 58.4801ZM72.1702 55.7001C67.8302 55.7001 63.4002 55.7801 61.2902 55.9601C56.7502 56.3401 57.0402 58.96 56.7502 66.11C56.5397 69.0062 56.5397 71.9139 56.7502 74.8101C56.7502 75.4801 64.4802 75.8101 67.8702 75.8101H94.2502C95.9002 75.8101 95.2502 65.8101 94.0602 64.9901C92.0815 63.7016 89.9346 62.6921 87.6802 61.9901C87.6802 61.9901 85.1702 56.2901 83.1402 55.9901C82.0502 55.8301 77.1402 55.7301 72.1402 55.7301" fill="white"/>
<path d="M67.8702 75.7701H94.2502C95.9002 75.7701 95.2502 65.7701 94.0602 64.9501C92.0815 63.6616 89.9346 62.6521 87.6802 61.9501C87.6802 61.9501 85.1702 56.2501 83.1402 55.9501C81.1102 55.6501 65.8402 55.5601 61.3002 55.9501C56.7602 56.3401 57.0402 58.9501 56.7502 66.1001C56.5397 68.9963 56.5397 71.9039 56.7502 74.8001C56.7502 75.4801 64.4802 75.7701 67.8702 75.7701Z" stroke="black" strokeWidth="1.85" stroke-linecap="round" stroke-linejoin="round"/>
<path d="M71.6304 75.7101C71.6304 76.5012 71.3958 77.2745 70.9562 77.9323C70.5167 78.5901 69.892 79.1028 69.1611 79.4056C68.4302 79.7083 67.6259 79.7875 66.85 79.6332C66.0741 79.4789 65.3614 79.0979 64.8019 78.5385C64.2425 77.9791 63.8616 77.2663 63.7072 76.4904C63.5529 75.7145 63.6321 74.9102 63.9349 74.1793C64.2376 73.4484 64.7503 72.8237 65.4081 72.3842C66.0659 71.9447 66.8393 71.7101 67.6304 71.7101C68.6912 71.7101 69.7087 72.1315 70.4588 72.8816C71.209 73.6318 71.6304 74.6492 71.6304 75.7101Z" fill="white"/>
<path d="M71.6304 75.7101C71.6304 76.5012 71.3958 77.2745 70.9562 77.9323C70.5167 78.5901 69.892 79.1028 69.1611 79.4056C68.4302 79.7083 67.6259 79.7876 66.85 79.6332C66.0741 79.4789 65.3614 79.0979 64.8019 78.5385C64.2425 77.9791 63.8616 77.2663 63.7072 76.4904C63.5529 75.7145 63.6321 74.9102 63.9349 74.1793C64.2376 73.4484 64.7503 72.8237 65.4081 72.3842C66.0659 71.9447 66.8393 71.7101 67.6304 71.7101C68.6912 71.7101 69.7087 72.1315 70.4588 72.8816C71.209 73.6318 71.6304 74.6492 71.6304 75.7101Z" stroke="black" strokeWidth="1.85" stroke-linecap="round" stroke-linejoin="round"/>
<path fillRule="evenodd" clipRule="evenodd" d="M69.1401 63.8501C69.1401 64.305 69.0052 64.7496 68.7524 65.1279C68.4997 65.5061 68.1405 65.8009 67.7202 65.975C67.2999 66.149 66.8375 66.1946 66.3914 66.1059C65.9452 66.0171 65.5354 65.7981 65.2137 65.4764C64.8921 65.1547 64.673 64.7449 64.5842 64.2988C64.4955 63.8526 64.5411 63.3901 64.7151 62.9699C64.8892 62.5496 65.184 62.1904 65.5623 61.9377C65.9405 61.6849 66.3852 61.55 66.8401 61.55C67.1425 61.5487 67.4422 61.6073 67.7218 61.7224C68.0014 61.8376 68.2555 62.0069 68.4694 62.2208C68.6832 62.4346 68.8525 62.6887 68.9676 62.9683C69.0828 63.248 69.1414 63.5476 69.1401 63.8501Z" fill="white"/>
<path d="M88.3804 75.7101C88.3804 76.5012 88.1458 77.2745 87.7062 77.9323C87.2667 78.5901 86.642 79.1028 85.9111 79.4056C85.1802 79.7083 84.3759 79.7875 83.6 79.6332C82.8241 79.4789 82.1114 79.0979 81.5519 78.5385C80.9925 77.9791 80.6116 77.2663 80.4572 76.4904C80.3029 75.7145 80.3821 74.9102 80.6849 74.1793C80.9876 73.4484 81.5003 72.8237 82.1581 72.3842C82.8159 71.9447 83.5893 71.7101 84.3804 71.7101C85.4412 71.7101 86.4587 72.1315 87.2088 72.8816C87.959 73.6318 88.3804 74.6492 88.3804 75.7101Z" fill="white"/>
<path d="M88.3804 75.7101C88.3804 76.5012 88.1458 77.2745 87.7062 77.9323C87.2667 78.5901 86.642 79.1028 85.9111 79.4056C85.1802 79.7083 84.3759 79.7876 83.6 79.6332C82.8241 79.4789 82.1114 79.0979 81.5519 78.5385C80.9925 77.9791 80.6116 77.2663 80.4572 76.4904C80.3029 75.7145 80.3821 74.9102 80.6849 74.1793C80.9876 73.4484 81.5003 72.8237 82.1581 72.3842C82.8159 71.9447 83.5893 71.7101 84.3804 71.7101C85.4412 71.7101 86.4587 72.1315 87.2088 72.8816C87.959 73.6318 88.3804 74.6492 88.3804 75.7101Z" stroke="black" strokeWidth="1.85" stroke-linecap="round" stroke-linejoin="round"/>
<path d="M73.9004 64.3401H78.6703" stroke="black" strokeWidth="1.85" stroke-linecap="round" stroke-linejoin="round"/>
</g>
</svg>
