<svg width="228" height="228" viewBox="0 0 228 228" fill="none" xmlns="http://www.w3.org/2000/svg">
<g clip-path="url(#clip0_791_265)">
<path d="M228 114C228 176.955 176.955 228 114 228C51.0448 228 0 176.955 0 114C0 51.0448 51.0448 0 114 0C176.955 0 228 51.0448 228 114Z" fill="#ECF1F4"/>
<path d="M138.405 148H46.5946C45.1975 148 44 146.802 44 145.405V53.5946C44 52.1975 45.1975 51 46.5946 51H138.405C139.802 51 141 52.1975 141 53.5946V145.405C140.9 146.802 139.802 148 138.405 148Z" fill="white"/>
<path d="M138.405 148H46.5946C45.1975 148 44 146.802 44 145.405V53.5946C44 52.1975 45.1975 51 46.5946 51H138.405C139.802 51 141 52.1975 141 53.5946V145.405C140.9 146.802 139.802 148 138.405 148Z" stroke="#414149" strokeWidth="4" strokeMiterlimit="10" stroke-linecap="round" stroke-linejoin="round"/>
<path d="M103.299 131.022C117.586 125.104 124.37 108.725 118.452 94.4379C112.535 80.1511 96.1554 73.3668 81.8686 79.2847C67.5817 85.2026 60.7974 101.582 66.7153 115.869C72.6332 130.155 89.0124 136.94 103.299 131.022Z" stroke="#414149" strokeWidth="4" strokeMiterlimit="10" stroke-linecap="round" stroke-linejoin="round"/>
<path d="M92.5 127C80.6 127 71 117.4 71 105.5C71 93.7 80.7 84 92.5 84C104.3 84 114 93.6 114 105.5C114 117.4 104.4 127 92.5 127Z" fill="#04B2D9"/>
<path d="M55 63H105" stroke="#414149" strokeWidth="4" strokeMiterlimit="10" stroke-linecap="round" stroke-linejoin="round"/>
<path d="M119 63H120" stroke="#F29F05" strokeWidth="6" strokeMiterlimit="10" stroke-linecap="round" stroke-linejoin="round"/>
<path d="M129 63H130" stroke="#F29F05" strokeWidth="6" strokeMiterlimit="10" stroke-linecap="round" stroke-linejoin="round"/>
<path d="M188.852 157.48L199.29 157.781C200.495 155.069 201.398 152.255 202 149.342L193.369 143.414C193.469 142.409 193.469 141.505 193.469 140.5C193.469 139.495 193.369 138.491 193.369 137.586L202 131.658C201.398 128.745 200.394 125.931 199.29 123.219L188.852 123.52C187.849 121.812 186.645 120.204 185.44 118.798L188.953 108.952C186.745 106.942 184.336 105.234 181.727 103.727L173.497 110.057C171.69 109.253 169.784 108.65 167.877 108.248L164.966 98.201C163.461 98 162.056 98 160.55 98C159.045 98 157.539 98.1005 156.134 98.201L153.224 108.248C151.317 108.65 149.41 109.253 147.603 110.057L139.374 103.727C136.764 105.234 134.355 106.942 132.148 108.952L135.66 118.798C134.355 120.305 133.252 121.913 132.248 123.52L121.81 123.219C120.606 125.931 119.703 128.745 119 131.658L127.631 137.586C127.531 138.591 127.531 139.495 127.531 140.5C127.531 141.505 127.631 142.509 127.631 143.414L119 149.342C119.602 152.255 120.606 155.069 121.81 157.781L132.248 157.48C133.252 159.188 134.456 160.796 135.66 162.202L132.148 172.048C134.355 174.058 136.764 175.766 139.374 177.273L147.603 170.943C149.41 171.747 151.317 172.35 153.224 172.752L156.134 182.799C157.64 183 159.045 183 160.55 183C162.056 183 163.561 182.9 164.966 182.799L167.877 172.752C169.784 172.35 171.69 171.747 173.497 170.943L181.727 177.273C184.336 175.766 186.745 174.058 188.953 172.048L185.44 162.202C186.645 160.796 187.849 159.188 188.852 157.48Z" fill="white"/>
<path d="M188.852 157.48L199.29 157.781C200.495 155.069 201.398 152.255 202 149.342L193.369 143.414C193.469 142.409 193.469 141.505 193.469 140.5C193.469 139.495 193.369 138.491 193.369 137.586L202 131.658C201.398 128.745 200.394 125.931 199.29 123.219L188.852 123.52C187.849 121.812 186.645 120.204 185.44 118.798L188.953 108.952C186.745 106.942 184.336 105.234 181.727 103.727L173.497 110.057C171.69 109.253 169.784 108.65 167.877 108.248L164.966 98.201C163.461 98 162.056 98 160.55 98C159.045 98 157.539 98.1005 156.134 98.201L153.224 108.248C151.317 108.65 149.41 109.253 147.603 110.057L139.374 103.727C136.764 105.234 134.355 106.942 132.148 108.952L135.66 118.798C134.355 120.305 133.252 121.913 132.248 123.52L121.81 123.219C120.606 125.931 119.703 128.745 119 131.658L127.631 137.586C127.531 138.591 127.531 139.495 127.531 140.5C127.531 141.505 127.631 142.509 127.631 143.414L119 149.342C119.602 152.255 120.606 155.069 121.81 157.781L132.248 157.48C133.252 159.188 134.456 160.796 135.66 162.202L132.148 172.048C134.355 174.058 136.764 175.766 139.374 177.273L147.603 170.943C149.41 171.747 151.317 172.35 153.224 172.752L156.134 182.799C157.64 183 159.045 183 160.55 183C162.056 183 163.561 182.9 164.966 182.799L167.877 172.752C169.784 172.35 171.69 171.747 173.497 170.943L181.727 177.273C184.336 175.766 186.745 174.058 188.953 172.048L185.44 162.202C186.645 160.796 187.849 159.188 188.852 157.48Z" stroke="#414149" strokeWidth="4" strokeMiterlimit="10" stroke-linecap="round" stroke-linejoin="round"/>
<path d="M184 140.5C184 153.5 173.5 164 160.5 164C147.5 164 137 153.5 137 140.5C137 127.5 147.5 117 160.5 117C173.5 117 184 127.5 184 140.5Z" fill="#F27507"/>
<path d="M164.582 150.116C170.195 147.791 172.86 141.356 170.535 135.743C168.21 130.131 161.775 127.466 156.163 129.79C150.55 132.115 147.885 138.55 150.21 144.163C152.534 149.775 158.969 152.441 164.582 150.116Z" stroke="#414149" strokeWidth="4" strokeMiterlimit="10" stroke-linecap="round" stroke-linejoin="round"/>
</g>
<defs>
<clipPath id="clip0_791_265">
<rect width="228" height="228" fill="white"/>
</clipPath>
</defs>
</svg>
