<svg width="22" height="28" viewBox="0 0 22 28" fill="none" xmlns="http://www.w3.org/2000/svg">
<path d="M17.1601 27.71H3.88007C3.73361 27.7081 3.59311 27.6517 3.48591 27.5519C3.37871 27.4521 3.31252 27.316 3.30012 27.17L1.6601 5.88C1.65279 5.80024 1.66233 5.71986 1.68818 5.64404C1.71402 5.56823 1.75555 5.49869 1.81006 5.44C1.86489 5.38055 1.93134 5.33304 2.00532 5.30035C2.07929 5.26767 2.15919 5.25051 2.24006 5.25H18.8101C18.8894 5.25068 18.9678 5.26794 19.0402 5.30066C19.1125 5.33338 19.1772 5.38083 19.2301 5.44C19.2869 5.49712 19.3299 5.56646 19.3559 5.6427C19.3819 5.71894 19.3901 5.80009 19.3801 5.88L17.7401 27.17C17.7323 27.3177 17.6675 27.4566 17.5593 27.5573C17.4511 27.6581 17.3079 27.7128 17.1601 27.71ZM4.42011 26.51H16.6201L18.1801 6.37H2.87006L4.42011 26.51Z" fill="#048ABF"/>
<path d="M10.52 24.78C10.4438 24.78 10.3683 24.765 10.298 24.7359C10.2276 24.7068 10.1637 24.664 10.1099 24.6102C10.056 24.5563 10.0133 24.4924 9.98413 24.422C9.95498 24.3516 9.93994 24.2762 9.93994 24.2V8.71002C9.93994 8.5562 10.0011 8.4087 10.1099 8.29993C10.2186 8.19116 10.3661 8.13 10.52 8.13C10.6738 8.13 10.8213 8.19116 10.9301 8.29993C11.0388 8.4087 11.1 8.5562 11.1 8.71002V24.23C11.1 24.3839 11.0388 24.5314 10.9301 24.6401C10.8213 24.7489 10.6738 24.81 10.52 24.81" fill="#048ABF"/>
<path d="M7.33002 24.49C7.18125 24.4902 7.03813 24.4332 6.93018 24.3308C6.82223 24.2285 6.7577 24.0885 6.75 23.94L5.88001 9.30003C5.87457 9.22382 5.88429 9.14726 5.90851 9.07481C5.93274 9.00235 5.971 8.9354 6.02118 8.87778C6.07136 8.82017 6.13242 8.77305 6.20087 8.73911C6.26931 8.70517 6.34382 8.68504 6.42005 8.67997C6.57494 8.67174 6.7268 8.72486 6.84284 8.8278C6.95887 8.93073 7.02974 9.07525 7.04004 9.23002L7.91004 23.87C7.91545 23.947 7.9054 24.0243 7.88056 24.0974C7.85571 24.1705 7.81655 24.2378 7.76532 24.2956C7.7141 24.3533 7.65188 24.4003 7.58228 24.4337C7.51268 24.4671 7.43714 24.4862 7.36005 24.49" fill="#048ABF"/>
<path d="M13.7201 24.49C13.643 24.4862 13.5674 24.4671 13.4978 24.4337C13.4282 24.4003 13.366 24.3533 13.3148 24.2956C13.2636 24.2378 13.2244 24.1705 13.1996 24.0974C13.1747 24.0243 13.1647 23.947 13.1701 23.87L14.0401 9.23002C14.0504 9.07525 14.1212 8.93073 14.2373 8.8278C14.3533 8.72486 14.5052 8.67174 14.6601 8.67997C14.7364 8.68504 14.8108 8.70517 14.8792 8.73911C14.9477 8.77305 15.0087 8.82017 15.0589 8.87778C15.1091 8.9354 15.1474 9.00235 15.1717 9.07481C15.1959 9.14726 15.2055 9.22382 15.2001 9.30003L14.3301 23.94C14.3224 24.0885 14.2579 24.2285 14.15 24.3308C14.042 24.4332 13.8989 24.4902 13.7501 24.49" fill="#048ABF"/>
<path d="M19.46 6.37H1.58002C1.37253 6.37 1.1671 6.32916 0.975403 6.24976C0.783708 6.17035 0.609485 6.05394 0.462769 5.90723C0.316052 5.76051 0.199703 5.58635 0.1203 5.39465C0.0408979 5.20296 0 4.99753 0 4.79004V4.17999C0 3.9725 0.0408979 3.76707 0.1203 3.57538C0.199703 3.38368 0.316052 3.20952 0.462769 3.06281C0.609485 2.91609 0.783708 2.79968 0.975403 2.72028C1.1671 2.64087 1.37253 2.60004 1.58002 2.60004H19.46C19.8791 2.60004 20.281 2.7665 20.5773 3.06281C20.8736 3.35911 21.04 3.76095 21.04 4.17999V4.79004C21.04 5.20908 20.8736 5.61092 20.5773 5.90723C20.281 6.20353 19.8791 6.37 19.46 6.37ZM1.58002 3.76001C1.46863 3.76001 1.36179 3.80429 1.28302 3.88306C1.20425 3.96182 1.16003 4.0686 1.16003 4.17999V4.79004C1.16003 4.90143 1.20425 5.00827 1.28302 5.08704C1.36179 5.1658 1.46863 5.21002 1.58002 5.21002H19.46C19.5714 5.21002 19.6783 5.1658 19.757 5.08704C19.8358 5.00827 19.88 4.90143 19.88 4.79004V4.17999C19.88 4.0686 19.8358 3.96182 19.757 3.88306C19.6783 3.80429 19.5714 3.76001 19.46 3.76001H1.58002Z" fill="#048ABF"/>
<path d="M13.23 3.76001H7.82001C7.66618 3.76001 7.51868 3.69892 7.40991 3.59015C7.30114 3.48138 7.23999 3.33382 7.23999 3.17999V1.37C7.23998 1.00837 7.38299 0.661424 7.63776 0.404785C7.89252 0.148146 8.23843 0.00263957 8.60004 0H12.45C12.8116 0.00263957 13.1575 0.148146 13.4123 0.404785C13.6671 0.661424 13.81 1.00837 13.81 1.37V3.17999C13.81 3.33382 13.7489 3.48138 13.6401 3.59015C13.5314 3.69892 13.3839 3.76001 13.23 3.76001ZM8.40002 2.60004H12.65V1.37C12.65 1.31695 12.6289 1.26608 12.5914 1.22858C12.5539 1.19107 12.5031 1.17004 12.45 1.17004H8.60004C8.54699 1.17004 8.49613 1.19107 8.45862 1.22858C8.42111 1.26608 8.40002 1.31695 8.40002 1.37V2.60004Z" fill="#048ABF"/>
</svg>
